<svg width="390" height="149" viewBox="0 0 390 149" fill="none" xmlns="http://www.w3.org/2000/svg">
<path fill-rule="evenodd" clip-rule="evenodd" d="M22.9164 91.7L43.67 70.35L85.5206 117.642V133.738L79.3634 147H84.1934L85.5206 144.143V147H111.5H117.17H131.499V132.938H104.741L103.849 131.929V125.67H127.233V112.24H103.849V105.762H130.472V102.69H161.301C160.904 103.248 160.525 103.825 160.164 104.419C157.531 108.79 156.214 113.767 156.214 119.35C156.214 124.933 157.531 129.936 160.164 134.36C162.85 138.731 166.537 142.155 171.224 144.63C175.911 147.053 181.178 148.264 187.024 148.264C192.396 148.264 197.189 147.316 201.402 145.42C202.871 144.759 204.25 143.996 205.539 143.13C208.61 144.654 211.771 145.791 215.02 146.541L215.233 147H217.294C219.717 147.42 222.189 147.63 224.71 147.63C233.109 147.63 240.044 145.952 245.514 142.596C246.537 143.303 247.619 143.954 248.762 144.551C248.975 144.663 249.19 144.772 249.407 144.878L248.422 147H253.252L253.467 146.537C256.962 147.688 260.74 148.264 264.799 148.264C270.75 148.264 276.096 147.026 280.836 144.551C285.576 142.076 289.289 138.652 291.975 134.281C294.661 129.857 296.004 124.88 296.004 119.35C296.004 113.82 294.661 108.869 291.975 104.498C291.597 103.876 291.199 103.273 290.781 102.69H322.521V147H341.165V133.096H346.221L355.622 147H375.53L363.917 129.936C367.287 128.198 369.868 125.854 371.659 122.905C371.94 122.441 372.2 121.965 372.437 121.476L384.292 147H389.122L374.231 114.928C374.307 114.159 374.345 113.368 374.345 112.556C374.345 108.343 373.318 104.656 371.264 101.496C369.751 99.1682 367.766 97.2406 365.31 95.713L320.872 -1.00136e-05H316.672L274.152 91.5807C271.221 90.8176 268.103 90.436 264.799 90.436C263.444 90.436 262.121 90.5001 260.83 90.6283V-1.00136e-05H201.61V3.98999H256.63V91.2954C253.844 91.9134 251.221 92.8646 248.762 94.149C244.022 96.6243 240.309 100.074 237.623 104.498C234.937 108.869 233.594 113.82 233.594 119.35C233.594 124.88 234.937 129.857 237.623 134.281C238.899 136.358 240.408 138.222 242.148 139.871C237.547 142.384 231.805 143.64 224.92 143.64C222.641 143.64 220.416 143.455 218.245 143.084L202.714 109.633L211.83 101.496C209.091 97.9147 205.615 95.176 201.402 93.28C199.13 92.2578 196.69 91.5112 194.082 91.0401L151.813 -1.00136e-05H147.613L105.038 91.7H85.5206V111.194L46.82 67.41L112.34 -1.00136e-05H106.67L17.4178 91.7H7.13V-1.00136e-05H2.93V91.7H0.503V147H2.93H7.13H27.758C33.92 147 39.3447 145.894 44.032 143.682C48.772 141.417 52.4323 138.205 55.013 134.044C57.6463 129.883 58.963 124.985 58.963 119.35C58.963 113.715 57.6463 108.817 55.013 104.656C52.4323 100.495 48.772 97.309 44.032 95.097C39.3447 92.8323 33.92 91.7 27.758 91.7H22.9164ZM130.472 98.7V91.7H109.903L149.713 5.66999L188.959 90.4781C188.322 90.45 187.677 90.436 187.024 90.436C181.178 90.436 175.911 91.6737 171.224 94.149C168.805 95.3994 166.652 96.9164 164.766 98.7H130.472ZM197.868 109.61C194.951 106.887 191.652 105.525 187.972 105.525C184.075 105.525 180.941 106.789 178.571 109.317C176.201 111.792 175.016 115.137 175.016 119.35C175.016 123.563 176.201 126.934 178.571 129.462C180.941 131.937 184.075 133.175 187.972 133.175C189.455 133.175 190.875 132.954 192.234 132.512C190.755 130.752 189.4 128.862 188.17 126.84L191.11 124.32C192.621 126.613 194.248 128.712 195.992 130.616C197.431 129.608 198.787 128.302 200.059 126.697L209.872 135.456L197.868 109.61ZM211.105 138.111C210.469 138.874 209.796 139.596 209.087 140.276C210.299 140.825 211.531 141.307 212.782 141.721L211.105 138.111ZM260.08 132.299C261.541 132.883 263.114 133.175 264.799 133.175C267.116 133.175 269.196 132.622 271.04 131.516C272.936 130.357 274.437 128.751 275.543 126.697C276.649 124.59 277.202 122.141 277.202 119.35C277.202 116.559 276.649 114.136 275.543 112.082C274.54 110.171 273.211 108.672 271.558 107.584L260.08 132.299ZM267.541 105.82L257.725 126.963C259.795 121.247 260.83 114.346 260.83 106.26V106.159C262.076 105.736 263.399 105.525 264.799 105.525C265.753 105.525 266.667 105.623 267.541 105.82ZM256.585 108.696C256.37 115.361 255.388 121.073 253.64 125.831C252.81 123.928 252.396 121.767 252.396 119.35C252.396 116.559 252.949 114.136 254.055 112.082C254.752 110.755 255.595 109.626 256.585 108.696ZM287.29 98.7C285.406 96.9292 283.255 95.4122 280.836 94.149C280.029 93.7277 279.205 93.3422 278.363 92.9926L318.772 5.66999L359.194 93.0221C356.188 92.1407 352.838 91.7 349.144 91.7H322.521V98.7H287.29ZM36.527 129.067C34.157 131.332 30.9707 132.464 26.968 132.464H19.147V106.236H26.968C30.9707 106.236 34.157 107.395 36.527 109.712C38.9497 111.977 40.161 115.189 40.161 119.35C40.161 123.511 38.9497 126.75 36.527 129.067ZM353.647 107.816C354.911 108.922 355.543 110.502 355.543 112.556C355.543 114.61 354.911 116.216 353.647 117.375C352.383 118.481 350.487 119.034 347.959 119.034H341.165V106.078H347.959C350.487 106.078 352.383 106.657 353.647 107.816Z" fill="#2D2D2F"/>
</svg>
