<svg height="512pt" viewBox="-13 0 512 512.00006" width="512pt" xmlns="http://www.w3.org/2000/svg"><path d="m483.257812 277.339844-32.859374-20.523438c-12.824219-8.011718-28-10.546875-42.734376-7.144531-14.734374 3.40625-27.261718 12.34375-35.269531 25.167969l-33.40625 53.476562c-5.886719 9.429688-15.09375 15.996094-25.921875 18.5-10.832031 2.503906-21.988281.636719-31.414062-5.25-19.460938-12.15625-25.40625-37.878906-13.25-57.339844l75.800781-121.351562c16.535156-26.472656 8.453125-61.46875-18.023437-78.003906l-32.203126-20.117188 5.195313-8.316406c2.195313-3.515625 1.125-8.140625-2.386719-10.335938-3.515625-2.191406-8.140625-1.125-10.332031 2.386719l-20.75 33.214844c-2.191406 3.515625-1.125 8.140625 2.390625 10.335937 1.234375.769532 2.605469 1.140626 3.964844 1.140626 2.5 0 4.945312-1.25 6.367187-3.527344l7.605469-12.175782 32.203125 20.117188c19.460937 12.15625 25.402344 37.875 13.246094 57.335938l-75.796875 121.351562c-16.539063 26.476562-8.453125 61.46875 18.019531 78.003906 9.109375 5.691406 19.402344 8.617188 29.882813 8.617188 4.277343 0 8.582031-.484375 12.851562-1.472656 14.734375-3.402344 27.261719-12.34375 35.269531-25.167969l33.40625-53.476563c5.886719-9.425781 15.09375-15.996094 25.921875-18.5s21.988282-.636718 31.414063 5.25l32.859375 20.527344c3.515625 2.191406 8.140625 1.125 10.335937-2.386719 2.195313-3.515625 1.125-8.140625-2.386719-10.335937zm0 0"/><path d="m298.855469 103.253906c-3.398438-2.367187-8.070313-1.53125-10.4375 1.867188l-272.789063 391.632812c-.058594.085938-.113281.148438-.148437.191406-.148438-.046874-.332031-.160156-.4375-.273437.023437-.050781.054687-.125.105469-.214844l260.441406-467.523437c3.648437-6.546875 9.65625-11.183594 16.917968-13.054688 7.257813-1.867187 14.757813-.710937 21.117188 3.261719 6.15625 3.84375 10.4375 9.851563 12.058594 16.921875 1.617187 7.050781.402344 14.292969-3.414063 20.398438-.242187.386718-.496093.773437-.761719 1.152343-2.367187 3.398438-1.53125 8.074219 1.863282 10.441407 3.398437 2.367187 8.074218 1.53125 10.441406-1.867188.40625-.582031.792969-1.171875 1.167969-1.769531 5.941406-9.5 7.828125-20.761719 5.320312-31.707031-2.515625-10.980469-9.167969-20.320313-18.730469-26.292969-9.875-6.167969-21.527343-7.964844-32.804687-5.0625-11.277344 2.902343-20.609375 10.105469-26.277344 20.277343l-9.691406 17.402344-36.011719-22.496094c-3.511718-2.191406-8.136718-1.125-10.332031 2.390626-2.195313 3.511718-1.125 8.136718 2.386719 10.332031l36.648437 22.890625-243.441406 437.003906c-4.097656 7.359375-1.886719 15.9375 5.253906 20.398438 2.640625 1.648437 5.492188 2.445312 8.277344 2.445312 4.753906 0 9.324219-2.316406 12.359375-6.671875l272.785156-391.632813c2.367188-3.398437 1.53125-8.074218-1.867187-10.441406zm0 0"/></svg>