<svg width="460" height="217" viewBox="0 0 460 217" fill="none" xmlns="http://www.w3.org/2000/svg">
<path d="M78.036 101.344L69.662 110.666V138H33.006V27.4H69.662V67.532L106.002 27.4H146.608L102.368 76.064L148.82 138H105.686L78.036 101.344ZM206.252 118.724H164.224L156.798 138H118.878L167.226 27.4H203.882L252.23 138H213.678L206.252 118.724ZM195.982 91.864L185.238 64.056L174.494 91.864H195.982ZM271.081 140.528C262.444 140.528 254.596 139.159 247.539 136.42C240.587 133.576 234.846 129.468 230.317 124.096L250.383 100.396C253.332 104.083 256.229 106.821 259.073 108.612C261.917 110.403 264.866 111.298 267.921 111.298C271.818 111.298 274.768 110.139 276.769 107.822C278.876 105.505 279.929 102.081 279.929 97.552V55.524H242.325V27.4H316.743V95.34C316.743 110.403 312.846 121.726 305.051 129.31C297.362 136.789 286.038 140.528 271.081 140.528ZM389.513 118.724H347.485L340.059 138H302.139L350.487 27.4H387.143L435.491 138H396.939L389.513 118.724ZM379.243 91.864L368.499 64.056L357.755 91.864H379.243ZM31.752 143.4H51.132C56.164 143.4 60.6067 144.42 64.46 146.46C68.3133 148.455 71.3053 151.265 73.436 154.892C75.5667 158.473 76.632 162.576 76.632 167.2C76.632 171.824 75.5667 175.949 73.436 179.576C71.3053 183.157 68.3133 185.968 64.46 188.008C60.6067 190.003 56.164 191 51.132 191H31.752V143.4ZM50.86 186.648C55.0307 186.648 58.68 185.832 61.808 184.2C64.936 182.523 67.3613 180.233 69.084 177.332C70.8067 174.385 71.668 171.008 71.668 167.2C71.668 163.392 70.8067 160.037 69.084 157.136C67.3613 154.189 64.936 151.9 61.808 150.268C58.68 148.591 55.0307 147.752 50.86 147.752H36.784V186.648H50.86ZM115.472 186.648V191H81.8117V143.4H114.452V147.752H86.8437V164.684H111.46V168.968H86.8437V186.648H115.472ZM141.586 191.408C136.872 191.408 132.61 190.365 128.802 188.28C125.04 186.195 122.07 183.316 119.894 179.644C117.764 175.927 116.698 171.779 116.698 167.2C116.698 162.621 117.764 158.496 119.894 154.824C122.07 151.107 125.062 148.205 128.87 146.12C132.678 144.035 136.94 142.992 141.654 142.992C145.19 142.992 148.454 143.581 151.446 144.76C154.438 145.939 156.977 147.661 159.062 149.928L155.866 153.124C152.149 149.361 147.457 147.48 141.79 147.48C138.028 147.48 134.605 148.341 131.522 150.064C128.44 151.787 126.014 154.144 124.246 157.136C122.524 160.128 121.662 163.483 121.662 167.2C121.662 170.917 122.524 174.272 124.246 177.264C126.014 180.256 128.44 182.613 131.522 184.336C134.605 186.059 138.028 186.92 141.79 186.92C147.502 186.92 152.194 185.016 155.866 181.208L159.062 184.404C156.977 186.671 154.416 188.416 151.378 189.64C148.386 190.819 145.122 191.408 141.586 191.408ZM183.481 191.408C178.767 191.408 174.483 190.365 170.629 188.28C166.821 186.149 163.829 183.248 161.653 179.576C159.523 175.904 158.457 171.779 158.457 167.2C158.457 162.621 159.523 158.496 161.653 154.824C163.829 151.152 166.821 148.273 170.629 146.188C174.483 144.057 178.767 142.992 183.481 142.992C188.196 142.992 192.435 144.035 196.197 146.12C200.005 148.205 202.997 151.107 205.173 154.824C207.349 158.496 208.437 162.621 208.437 167.2C208.437 171.779 207.349 175.927 205.173 179.644C202.997 183.316 200.005 186.195 196.197 188.28C192.435 190.365 188.196 191.408 183.481 191.408ZM183.481 186.92C187.244 186.92 190.644 186.081 193.681 184.404C196.719 182.681 199.099 180.324 200.821 177.332C202.544 174.295 203.405 170.917 203.405 167.2C203.405 163.483 202.544 160.128 200.821 157.136C199.099 154.099 196.719 151.741 193.681 150.064C190.644 148.341 187.244 147.48 183.481 147.48C179.719 147.48 176.296 148.341 173.213 150.064C170.176 151.741 167.773 154.099 166.005 157.136C164.283 160.128 163.421 163.483 163.421 167.2C163.421 170.917 164.283 174.295 166.005 177.332C167.773 180.324 170.176 182.681 173.213 184.404C176.296 186.081 179.719 186.92 183.481 186.92ZM246.1 191L235.22 175.7C233.996 175.836 232.727 175.904 231.412 175.904H218.628V191H213.596V143.4H231.412C237.487 143.4 242.247 144.851 245.692 147.752C249.138 150.653 250.86 154.643 250.86 159.72C250.86 163.437 249.908 166.588 248.004 169.172C246.146 171.711 243.471 173.547 239.98 174.68L251.608 191H246.1ZM231.276 171.62C235.991 171.62 239.595 170.577 242.088 168.492C244.582 166.407 245.828 163.483 245.828 159.72C245.828 155.867 244.582 152.92 242.088 150.88C239.595 148.795 235.991 147.752 231.276 147.752H218.628V171.62H231.276Z" fill="black"/>
</svg>
