<svg width="55" height="33" viewBox="0 0 55 33" fill="none" xmlns="http://www.w3.org/2000/svg">
<rect x="0.5" y="0.5" width="54" height="31" stroke="black"/>
<g filter="url(#filter0_d)">
<path d="M17.5765 12.1152C17.3653 11.7184 17.2597 11.2512 17.2597 10.7136C17.2597 10.2144 17.3429 9.7696 17.5093 9.3792C17.6821 8.9824 17.8677 8.6656 18.0661 8.4288C18.2709 8.1856 18.5173 7.9936 18.8053 7.8528C19.0997 7.7056 19.4101 7.632 19.7365 7.632C20.1973 7.632 20.5653 7.7632 20.8405 8.0256L22.0981 6.9696C22.0725 6.7456 22.0597 6.5248 22.0597 6.3072C22.0597 4.8864 22.4341 4.176 23.1829 4.176C23.3749 4.176 23.5253 4.2432 23.6341 4.3776C23.7429 4.512 23.8037 4.6848 23.8165 4.896C23.8229 5.2032 23.7237 5.5104 23.5189 5.8176C23.3205 6.1248 23.0261 6.4608 22.6357 6.8256C22.8341 8.1504 22.9333 9.0528 22.9333 9.5328C22.9333 10.0064 22.8725 10.4672 22.7509 10.9152C22.6293 11.3568 22.4437 11.76 22.1941 12.1248C21.9445 12.4896 21.6021 12.7744 21.1669 12.9792C20.7317 13.184 20.2261 13.2864 19.6501 13.2864C18.8245 13.2864 18.2005 13.0048 17.7781 12.4416C17.6629 12.8448 17.6053 13.3024 17.6053 13.8144C17.6053 14.3328 17.7397 14.7968 18.0085 15.2064C18.2837 15.6224 18.6357 15.8304 19.0645 15.8304C19.0965 15.8304 19.1125 15.8624 19.1125 15.9264C19.1189 15.9904 19.1029 16.0224 19.0645 16.0224C18.5589 16.0224 18.1429 15.7824 17.8165 15.3024C17.4901 14.8288 17.3269 14.3008 17.3269 13.7184C17.3269 13.136 17.4101 12.6016 17.5765 12.1152ZM21.0037 8.208C21.1829 8.4512 21.2725 8.7264 21.2725 9.0336C21.2725 9.3344 21.2245 9.6064 21.1285 9.8496C21.0389 10.0864 20.8757 10.2976 20.6389 10.4832C20.4085 10.6624 20.1397 10.752 19.8325 10.752C19.7685 10.752 19.7173 10.736 19.6789 10.704C19.6469 10.672 19.6245 10.6208 19.6117 10.5504C19.8869 10.5504 20.1397 10.4224 20.3701 10.1664C20.7029 9.808 20.8693 9.4048 20.8693 8.9568C20.8693 8.7712 20.8341 8.592 20.7637 8.4192C20.0469 9.0336 19.4421 9.6352 18.9493 10.224C18.4565 10.8128 18.0949 11.4528 17.8645 12.144C18.2293 12.7328 18.8021 13.0272 19.5829 13.0272C20.0629 13.0272 20.4821 12.9248 20.8405 12.72C21.2053 12.5216 21.4901 12.2496 21.6949 11.904C22.0981 11.2256 22.2997 10.4032 22.2997 9.4368C22.2997 9.2 22.2421 8.48 22.1269 7.2768L21.0037 8.208ZM20.6197 8.2176C20.4149 8 20.1333 7.8912 19.7749 7.8912C19.4165 7.8912 19.0933 7.9776 18.8053 8.1504C18.2741 8.4704 17.8933 9.008 17.6629 9.7632C17.5605 10.0832 17.5093 10.4128 17.5093 10.752C17.5093 11.1296 17.5701 11.4784 17.6917 11.7984C18.1333 10.6912 19.1093 9.4976 20.6197 8.2176ZM22.5493 5.8176C22.5493 5.9904 22.5653 6.2208 22.5973 6.5088C23.2309 5.888 23.5477 5.3632 23.5477 4.9344C23.5477 4.6016 23.4261 4.4352 23.1829 4.4352C22.7605 4.4352 22.5493 4.896 22.5493 5.8176ZM26.9753 11.7696C27.1417 11.7696 27.3753 11.5488 27.6761 11.1072C27.9769 10.6656 28.2361 10.224 28.4537 9.7824L28.7801 9.12H29.0393C29.0009 9.1968 28.9497 9.3024 28.8857 9.4368C28.8281 9.5648 28.7097 9.7984 28.5305 10.1376C28.3513 10.4704 28.1785 10.7648 28.0121 11.0208C27.8521 11.2768 27.6697 11.5104 27.4649 11.7216C27.2665 11.9264 27.0777 12.0288 26.8985 12.0288C26.7193 12.0288 26.5721 11.9744 26.4569 11.8656C26.3161 11.7248 26.2457 11.4784 26.2457 11.1264C26.2457 10.7744 26.3065 10.3104 26.4281 9.7344H26.3609C25.6249 11.2448 25.0137 12 24.5273 12C24.0985 12 23.8841 11.7216 23.8841 11.1648C23.8841 10.7616 24.0569 9.9584 24.4025 8.7552C24.4793 8.48 24.5369 8.2752 24.5753 8.1408C24.6137 8 24.6745 7.9296 24.7577 7.9296C24.8729 7.9296 24.9561 8.0128 25.0073 8.1792C25.0329 8.2496 25.0457 8.3392 25.0457 8.448C25.0457 8.5504 25.0297 8.6656 24.9977 8.7936C24.9657 8.9152 24.8985 9.152 24.7961 9.504C24.5209 10.4512 24.3833 11.088 24.3833 11.4144C24.3833 11.6256 24.4473 11.7312 24.5753 11.7312C24.7353 11.7312 24.9241 11.5872 25.1417 11.2992C25.3721 10.9984 25.5609 10.7072 25.7081 10.4256C25.8553 10.144 25.9737 9.9136 26.0633 9.7344C26.1529 9.5552 26.2425 9.3696 26.3321 9.1776C26.4217 8.9792 26.4921 8.816 26.5433 8.688C26.6009 8.56 26.6553 8.4384 26.7065 8.3232C26.7577 8.2016 26.7833 8.1376 26.7833 8.1312C26.8409 7.9968 26.9049 7.9296 26.9753 7.9296C27.0905 7.9296 27.1737 8.0128 27.2249 8.1792C27.2505 8.256 27.2633 8.3488 27.2633 8.4576C27.2633 8.5664 27.2505 8.6816 27.2249 8.8032C27.1993 8.9184 27.1577 9.0912 27.1001 9.3216C27.0425 9.552 26.9977 9.7408 26.9657 9.888C26.9337 10.0352 26.8953 10.2144 26.8505 10.4256C26.7865 10.7776 26.7545 11.0912 26.7545 11.3664C26.7545 11.6352 26.8281 11.7696 26.9753 11.7696ZM29.9564 11.7408C30.1996 11.7408 30.4652 11.4112 30.7532 10.752C31.0476 10.0544 31.1948 9.4176 31.1948 8.8416C31.1948 8.4448 31.0924 8.2432 30.8876 8.2368C30.6892 8.2368 30.462 8.3968 30.206 8.7168C29.9564 9.0368 29.7292 9.4144 29.5244 9.8496C29.0828 10.8032 28.8076 11.5168 28.6988 11.9904C28.3596 13.5264 28.126 14.48 27.998 14.8512C27.774 15.504 27.518 15.8304 27.23 15.8304C27.006 15.8304 26.894 15.6768 26.894 15.3696C26.894 15.1904 26.9324 14.9536 27.0092 14.6592C27.2076 13.9488 27.518 13.2672 27.9404 12.6144L28.1996 12.2592C28.2572 11.9712 28.334 11.5552 28.43 11.0112C28.622 9.9168 28.7596 9.1936 28.8428 8.8416C28.9324 8.4832 29.0348 8.24 29.15 8.112C29.2716 7.9776 29.374 7.9104 29.4572 7.9104C29.6172 7.9104 29.6748 7.9744 29.63 8.1024C29.47 8.6272 29.3036 9.248 29.1308 9.9648H29.198C29.8252 8.6016 30.3916 7.92 30.8972 7.92C31.3068 7.92 31.5628 8.1824 31.6652 8.7072C31.6972 8.8736 31.7132 9.0432 31.7132 9.216C31.7132 9.6384 31.6172 10.096 31.4252 10.5888C31.1564 11.2928 30.798 11.7376 30.35 11.9232C30.2156 11.9808 30.0812 12.0096 29.9468 12.0096C29.6332 12.0096 29.4508 11.8368 29.3996 11.4912C29.3932 11.4336 29.406 11.3888 29.438 11.3568C29.47 11.3248 29.5084 11.3152 29.5532 11.328C29.598 11.3408 29.6236 11.3728 29.63 11.424C29.662 11.6352 29.7708 11.7408 29.9564 11.7408ZM27.2012 15.5712C27.4508 15.5712 27.758 14.6048 28.1228 12.672C27.7452 13.2608 27.4412 13.9136 27.2108 14.6304C27.1084 14.9504 27.0572 15.1872 27.0572 15.3408C27.0572 15.4944 27.1052 15.5712 27.2012 15.5712ZM32.9158 10.5984C32.9158 11.3728 33.191 11.76 33.7414 11.76C33.9462 11.76 34.1606 11.6704 34.3846 11.4912C34.615 11.3056 34.823 11.0848 35.0086 10.8288C35.4182 10.24 35.7062 9.76 35.8726 9.3888L35.9974 9.12H36.2566C36.1478 9.376 35.9878 9.6928 35.7766 10.0704C35.5654 10.4416 35.3638 10.7552 35.1718 11.0112C34.9798 11.2672 34.7526 11.5008 34.4902 11.712C34.2278 11.9168 33.9782 12.0192 33.7414 12.0192C32.7942 12.0192 32.3206 11.488 32.3206 10.4256C32.3206 9.9328 32.4646 9.44 32.7526 8.9472C33.1494 8.2624 33.639 7.92 34.2214 7.92C34.631 7.92 34.8358 8.144 34.8358 8.592C34.8358 8.9248 34.7078 9.2704 34.4518 9.6288C34.0934 10.1152 33.6742 10.3616 33.1942 10.368C33.1238 10.368 33.079 10.336 33.0598 10.272L33.0502 10.2336C33.383 10.2336 33.6998 10.016 34.0006 9.5808C34.3078 9.1392 34.4614 8.7712 34.4614 8.4768C34.4614 8.2784 34.3846 8.1792 34.231 8.1792C33.8918 8.1792 33.575 8.4768 33.2806 9.072C33.0374 9.5776 32.9158 10.0864 32.9158 10.5984ZM35.8578 12C35.6786 12 35.589 11.8624 35.589 11.5872C35.589 11.44 35.7682 10.368 36.1266 8.3712C36.1522 8.2368 36.2098 8.1696 36.2994 8.1696C36.4146 8.1696 36.501 8.2528 36.5586 8.4192C36.5906 8.5088 36.6066 8.608 36.6066 8.7168C36.6066 8.8192 36.5938 8.9312 36.5682 9.0528L36.4146 9.84H36.4626C37.013 8.56 37.5186 7.92 37.9794 7.92C38.2354 7.92 38.405 8.0448 38.4882 8.2944C38.5202 8.3904 38.5362 8.5024 38.5362 8.6304C38.5362 8.752 38.501 8.8864 38.4306 9.0336C38.309 9.2832 38.1266 9.408 37.8834 9.408C37.8322 9.408 37.7906 9.3952 37.7586 9.3696C37.733 9.344 37.717 9.3088 37.7106 9.264C37.7618 9.264 37.829 9.1712 37.9122 8.9856C37.9954 8.7936 38.0434 8.6176 38.0562 8.4576C38.069 8.2976 38.0146 8.2048 37.893 8.1792C37.669 8.1792 37.4034 8.4704 37.0962 9.0528C36.789 9.6352 36.5426 10.192 36.357 10.7232C36.1714 11.2544 36.0626 11.6 36.0306 11.76C35.9986 11.92 35.941 12 35.8578 12ZM19.1975 19.3184C19.2871 19.3184 19.3479 19.3568 19.3799 19.4336L19.3895 19.4816C18.9159 19.4816 18.6119 19.9584 18.4775 20.912C18.4135 21.3408 18.3591 21.8144 18.3143 22.3328C18.2695 22.8448 18.2023 23.36 18.1127 23.8784C18.0231 24.3904 17.8951 24.8608 17.7287 25.2896C17.5687 25.712 17.3159 26.0544 16.9703 26.3168C16.6311 26.5856 16.2119 26.72 15.7127 26.72C15.3863 26.72 15.1047 26.656 14.8679 26.528C14.6375 26.4064 14.4711 26.2432 14.3687 26.0384C14.2407 25.776 14.1767 25.5264 14.1767 25.2896C14.1767 25.0528 14.2119 24.8288 14.2823 24.6176C14.3527 24.4 14.4487 24.192 14.5703 23.9936C14.6983 23.7888 14.8647 23.6256 15.0695 23.504C15.2743 23.376 15.4919 23.312 15.7223 23.312C15.8439 23.312 15.9303 23.3568 15.9815 23.4464L16.0103 23.4944C15.4727 23.4944 15.0471 23.7408 14.7335 24.2336C14.5287 24.56 14.4263 24.896 14.4263 25.2416C14.4263 25.3504 14.4391 25.4624 14.4647 25.5776C14.5543 26.0448 14.8103 26.3264 15.2327 26.4224C15.3351 26.448 15.4407 26.4608 15.5495 26.4608C15.9335 26.4608 16.2599 26.3296 16.5287 26.0672C16.7975 25.8048 17.0023 25.4656 17.1431 25.0496C17.2839 24.6272 17.4023 24.1632 17.4983 23.6576C17.5943 23.1456 17.6807 22.6368 17.7575 22.1312C17.8343 21.6192 17.9239 21.1552 18.0263 20.7392C18.1287 20.3168 18.2759 19.9744 18.4679 19.712C18.6663 19.4496 18.9095 19.3184 19.1975 19.3184ZM21.2231 18.0896C21.4343 18.0896 21.5399 18.2144 21.5399 18.464C21.5399 18.656 21.4375 18.8352 21.2327 19.0016C21.0343 19.1616 20.7175 19.2416 20.2823 19.2416C19.8535 19.2416 19.3127 19.136 18.6599 18.9248C18.0135 18.7136 17.4983 18.608 17.1143 18.608C16.2887 18.608 15.6455 18.9376 15.1847 19.5968C14.8711 20.0448 14.7143 20.5248 14.7143 21.0368C14.7143 21.7664 14.9639 22.2496 15.4631 22.4864C15.6359 22.5696 15.8311 22.6112 16.0487 22.6112C16.0487 22.656 16.0231 22.704 15.9719 22.7552C15.9207 22.8064 15.8631 22.832 15.7991 22.832C15.1271 22.832 14.6599 22.5536 14.3975 21.9968C14.2759 21.7344 14.2151 21.4592 14.2151 21.1712C14.2151 20.8832 14.2727 20.5792 14.3879 20.2592C14.6375 19.568 15.0823 19.056 15.7223 18.7232C16.1383 18.512 16.5767 18.4064 17.0375 18.4064C17.5047 18.4064 18.0359 18.4992 18.6311 18.6848C19.2263 18.864 19.7063 18.9536 20.0711 18.9536C20.6215 18.9536 20.9383 18.8256 21.0215 18.5696C21.0663 18.448 21.0535 18.368 20.9831 18.3296C20.9703 18.3232 20.9607 18.32 20.9543 18.32C20.9927 18.1664 21.0823 18.0896 21.2231 18.0896ZM21.7898 23.504C22.0394 23.1392 22.1642 22.8256 22.1642 22.5632C22.1642 22.3008 22.0778 22.1696 21.905 22.1696C21.7002 22.1696 21.4762 22.3424 21.233 22.688C20.9898 23.0272 20.7722 23.4336 20.5802 23.9072C20.209 24.8224 19.9818 25.456 19.8986 25.808C19.8602 25.936 19.8058 26 19.7354 26C19.6202 26 19.5338 25.9296 19.4762 25.7888C19.4442 25.712 19.4282 25.632 19.4282 25.5488C19.4282 25.4592 19.4538 25.2992 19.505 25.0688C19.5562 24.832 19.6426 24.4192 19.7642 23.8304C19.8794 23.2416 19.9786 22.7552 20.0618 22.3712C20.145 21.9808 20.241 21.5456 20.3498 21.0656C20.4586 20.5792 20.561 20.1856 20.657 19.8848C20.7594 19.5776 20.8746 19.2832 21.0026 19.0016C21.2458 18.4512 21.5242 18.176 21.8378 18.176C22.1258 18.176 22.2698 18.368 22.2698 18.752C22.2698 18.848 22.2602 18.96 22.241 19.088C22.145 19.696 21.8922 20.3232 21.4826 20.9696C21.1882 21.4368 20.9098 21.7312 20.6474 21.8528C20.6026 22.0896 20.5418 22.4288 20.465 22.8704C20.3882 23.312 20.3338 23.6192 20.3018 23.792H20.3498C20.8938 22.5568 21.4474 21.9392 22.0106 21.9392C22.433 21.9392 22.6442 22.1728 22.6442 22.64C22.6442 22.9472 22.513 23.28 22.2506 23.6384C21.9946 23.9968 21.649 24.2272 21.2138 24.3296C21.4314 24.4128 21.6138 24.56 21.761 24.7712C21.9146 24.976 22.0202 25.1744 22.0778 25.3664C22.225 25.872 22.3722 26.1248 22.5194 26.1248C22.5194 26.1696 22.4906 26.2144 22.433 26.2592C22.3754 26.304 22.3082 26.3264 22.2314 26.3264C22.0138 26.3264 21.841 26.224 21.713 26.0192C21.5914 25.8144 21.5114 25.5904 21.473 25.3472C21.4346 25.104 21.3642 24.88 21.2618 24.6752C21.1594 24.4704 21.0186 24.368 20.8394 24.368H20.8202C20.7626 24.368 20.721 24.3232 20.6954 24.2336C21.0922 24.2336 21.457 23.9904 21.7898 23.504ZM22.049 18.7712C22.049 18.5664 21.9914 18.4416 21.8762 18.3968C21.4986 18.3968 21.1082 19.4528 20.705 21.5648C20.961 21.3856 21.2266 21.0272 21.5018 20.4896C21.8666 19.7664 22.049 19.1936 22.049 18.7712ZM23.8333 26.0096C23.3277 26.0096 23.0749 25.6288 23.0749 24.8672C23.0749 24.4256 23.1901 23.9424 23.4205 23.4176C23.7405 22.7072 24.1469 22.2432 24.6397 22.0256C24.8125 21.9552 24.9853 21.92 25.1581 21.92C25.3373 21.92 25.4781 21.9712 25.5805 22.0736C25.6829 22.176 25.7341 22.2912 25.7341 22.4192C25.7341 22.4768 25.7021 22.5056 25.6381 22.5056C25.5805 22.4992 25.5517 22.4672 25.5517 22.4096C25.5517 22.352 25.5197 22.3008 25.4557 22.256C25.3981 22.2048 25.3117 22.1792 25.1965 22.1792C24.7933 22.1792 24.4285 22.5408 24.1021 23.264C23.7949 23.936 23.6413 24.5728 23.6413 25.1744C23.6413 25.5456 23.7213 25.7312 23.8813 25.7312C24.0477 25.7312 24.2461 25.5936 24.4765 25.3184C24.7133 25.0368 24.9309 24.7104 25.1293 24.3392C25.5581 23.5584 25.8109 23.056 25.8877 22.832C25.9645 22.608 26.0477 22.496 26.1373 22.496C26.2973 22.496 26.3773 22.6304 26.3773 22.8992C26.3773 22.9824 26.3677 23.0784 26.3485 23.1872C26.1373 24.2112 26.0221 24.8032 26.0029 24.9632C25.9901 25.1232 25.9837 25.2384 25.9837 25.3088C25.9837 25.616 26.0573 25.7696 26.2045 25.7696C26.3709 25.7696 26.6045 25.5488 26.9053 25.1072C27.2061 24.6656 27.4653 24.224 27.6829 23.7824L28.0093 23.12H28.2685C28.2301 23.1968 28.1789 23.3024 28.1149 23.4368C28.0573 23.5648 27.9389 23.7984 27.7597 24.1376C27.5805 24.4704 27.4077 24.7648 27.2413 25.0208C27.0813 25.2768 26.8989 25.5104 26.6941 25.7216C26.4957 25.9264 26.3229 26.0288 26.1757 26.0288C25.7021 26.0288 25.4653 25.6832 25.4653 24.992C25.4653 24.7616 25.4909 24.4928 25.5421 24.1856H25.4749C24.8221 25.4016 24.2749 26.0096 23.8333 26.0096ZM27.8501 26C27.6709 26 27.5813 25.8624 27.5813 25.5872C27.5813 25.44 27.7605 24.368 28.1189 22.3712C28.1381 22.2368 28.1957 22.1696 28.2917 22.1696C28.4069 22.1696 28.4933 22.2528 28.5509 22.4192C28.5829 22.5088 28.5989 22.608 28.5989 22.7168C28.5989 22.8192 28.5861 22.9312 28.5605 23.0528L28.4069 23.8208H28.4645C29.0405 22.528 29.5909 21.8816 30.1157 21.8816C30.3205 21.8816 30.4773 21.9456 30.5861 22.0736C30.6949 22.1952 30.7493 22.3648 30.7493 22.5824C30.7493 22.8 30.6629 23.2704 30.4901 23.9936C30.3173 24.7168 30.2309 25.2192 30.2309 25.5008C30.2309 25.9168 30.3077 26.1248 30.4613 26.1248C30.4613 26.1696 30.4325 26.2144 30.3749 26.2592C30.3173 26.304 30.2501 26.3264 30.1733 26.3264C29.8021 26.3264 29.6165 26.0352 29.6165 25.4528C29.6165 25.0944 29.7125 24.5536 29.9045 23.8304C30.1029 23.1008 30.2021 22.6368 30.2021 22.4384C30.2021 22.2336 30.1221 22.1312 29.9621 22.1312C29.7317 22.1312 29.4533 22.432 29.1269 23.0336C28.8069 23.6352 28.5477 24.2112 28.3493 24.7616C28.1573 25.3056 28.0453 25.648 28.0133 25.7888C27.9877 25.9296 27.9333 26 27.8501 26ZM32.9237 20.2496C33.0709 20.2496 33.1445 20.3488 33.1445 20.5472C33.1445 20.7456 33.0485 20.9056 32.8565 21.0272C32.7605 21.0912 32.6773 21.1232 32.6069 21.1232C32.5045 21.1232 32.4437 21.0912 32.4245 21.0272L32.4149 20.9984C32.4725 20.9984 32.5141 20.9376 32.5397 20.816C32.5653 20.688 32.6037 20.5632 32.6549 20.4416C32.7125 20.3136 32.8021 20.2496 32.9237 20.2496ZM32.3093 25.7696C32.4757 25.7696 32.7093 25.5488 33.0101 25.1072C33.3109 24.6656 33.5701 24.224 33.7877 23.7824L34.1141 23.12H34.3733C34.3349 23.1968 34.2837 23.3024 34.2197 23.4368C34.1621 23.5648 34.0437 23.7984 33.8645 24.1376C33.6853 24.4704 33.5125 24.7648 33.3461 25.0208C33.1861 25.2768 33.0037 25.5104 32.7989 25.7216C32.6005 25.9264 32.4277 26.0288 32.2805 26.0288C31.8069 26.0288 31.5701 25.7216 31.5701 25.1072C31.5701 24.6464 31.7013 23.8976 31.9637 22.8608C31.9893 22.752 32.0085 22.6688 32.0213 22.6112C32.0405 22.5536 32.0597 22.48 32.0789 22.3904C32.0981 22.2944 32.1173 22.208 32.1365 22.1312C32.1685 21.9968 32.2261 21.9296 32.3093 21.9296C32.4245 21.9296 32.5077 22.0128 32.5589 22.1792C32.5845 22.256 32.5973 22.3488 32.5973 22.4576C32.5973 22.5664 32.5845 22.6816 32.5589 22.8032C32.5333 22.9184 32.4917 23.0912 32.4341 23.3216C32.3765 23.552 32.3317 23.7408 32.2997 23.888C32.2677 24.0352 32.2325 24.2144 32.1941 24.4256C32.1237 24.7776 32.0885 25.0912 32.0885 25.3664C32.0885 25.6352 32.1621 25.7696 32.3093 25.7696ZM33.9556 26C33.7764 26 33.6868 25.8624 33.6868 25.5872C33.6868 25.44 33.866 24.368 34.2244 22.3712C34.2436 22.2368 34.3012 22.1696 34.3972 22.1696C34.5124 22.1696 34.5988 22.2528 34.6564 22.4192C34.6884 22.5088 34.7044 22.608 34.7044 22.7168C34.7044 22.8192 34.6916 22.9312 34.666 23.0528L34.5124 23.8208H34.57C35.146 22.528 35.6964 21.8816 36.2212 21.8816C36.426 21.8816 36.5828 21.9456 36.6916 22.0736C36.8004 22.1952 36.8548 22.3648 36.8548 22.5824C36.8548 22.8 36.7684 23.2704 36.5956 23.9936C36.4228 24.7168 36.3364 25.2192 36.3364 25.5008C36.3364 25.9168 36.4132 26.1248 36.5668 26.1248C36.5668 26.1696 36.538 26.2144 36.4804 26.2592C36.4228 26.304 36.3556 26.3264 36.2788 26.3264C35.9076 26.3264 35.722 26.0352 35.722 25.4528C35.722 25.0944 35.818 24.5536 36.01 23.8304C36.2084 23.1008 36.3076 22.6368 36.3076 22.4384C36.3076 22.2336 36.2276 22.1312 36.0676 22.1312C35.8372 22.1312 35.5588 22.432 35.2324 23.0336C34.9124 23.6352 34.6532 24.2112 34.4548 24.7616C34.2628 25.3056 34.1508 25.648 34.1188 25.7888C34.0932 25.9296 34.0388 26 33.9556 26ZM37.4644 29.8304C36.8564 29.8304 36.5524 29.52 36.5524 28.8992C36.5524 28.5344 36.69 28.1408 36.9652 27.7184C37.362 27.0976 37.8932 26.688 38.5588 26.4896C38.7956 26.4192 39.042 26.384 39.298 26.384C39.3428 26.384 39.3652 26.4288 39.3652 26.5184C39.3652 26.608 39.3428 26.6528 39.298 26.6528C38.5428 26.6528 37.9092 26.9504 37.3972 27.5456C37.0196 27.9936 36.8308 28.4256 36.8308 28.8416C36.8308 29.2576 36.9908 29.4976 37.3108 29.5616L37.4644 29.5712C37.9956 29.5712 38.4212 29.3472 38.7412 28.8992C38.9652 28.5792 39.1316 28.2528 39.2404 27.92C39.3556 27.5936 39.4388 27.3312 39.49 27.1328C39.5476 26.9344 39.6116 26.672 39.682 26.3456C39.7524 26.0256 39.8068 25.7536 39.8452 25.5296C39.89 25.3056 39.9508 24.9856 40.0276 24.5696C40.1108 24.1472 40.1748 23.8144 40.2196 23.5712H40.162C39.3876 25.1904 38.7508 26 38.2516 26C37.8228 26 37.6084 25.7216 37.6084 25.1648C37.6084 24.7616 37.7812 23.9584 38.1268 22.7552C38.2036 22.48 38.2612 22.2752 38.2996 22.1408C38.338 22 38.3988 21.9296 38.482 21.9296C38.5972 21.9296 38.6804 22.0128 38.7316 22.1792C38.7572 22.2496 38.77 22.3392 38.77 22.448C38.77 22.5504 38.754 22.6656 38.722 22.7936C38.69 22.9152 38.6228 23.152 38.5204 23.504C38.2452 24.4512 38.1076 25.088 38.1076 25.4144C38.1076 25.6256 38.1716 25.7312 38.2996 25.7312C38.4532 25.7312 38.642 25.5872 38.866 25.2992C39.0964 25.0112 39.3204 24.6592 39.538 24.2432C39.9348 23.488 40.258 22.784 40.5076 22.1312C40.5588 21.9968 40.6228 21.9296 40.6996 21.9296C40.8084 21.9296 40.8884 22.0128 40.9396 22.1792C40.9652 22.2688 40.978 22.368 40.978 22.4768C40.978 22.5856 40.9236 22.8992 40.8148 23.4176C40.7124 23.936 40.6068 24.432 40.498 24.9056C40.3956 25.3792 40.258 25.936 40.0852 26.576C39.9188 27.216 39.7588 27.6928 39.6052 28.0064C39.458 28.32 39.2756 28.64 39.058 28.9664C38.8468 29.2928 38.61 29.5168 38.3476 29.6384C38.0852 29.7664 37.7908 29.8304 37.4644 29.8304Z" fill="black"/>
</g>
<defs>
<filter id="filter0_d" x="13.1758" y="4.17603" width="28.8012" height="28.6544" filterUnits="userSpaceOnUse" color-interpolation-filters="sRGB">
<feFlood flood-opacity="0" result="BackgroundImageFix"/>
<feColorMatrix in="SourceAlpha" type="matrix" values="0 0 0 0 0 0 0 0 0 0 0 0 0 0 0 0 0 0 127 0"/>
<feOffset dy="2"/>
<feGaussianBlur stdDeviation="0.5"/>
<feColorMatrix type="matrix" values="0 0 0 0 0 0 0 0 0 0 0 0 0 0 0 0 0 0 0.25 0"/>
<feBlend mode="darken" in2="BackgroundImageFix" result="effect1_dropShadow"/>
<feBlend mode="normal" in="SourceGraphic" in2="effect1_dropShadow" result="shape"/>
</filter>
</defs>
</svg>
