<svg width="90" height="32" viewBox="0 0 90 32" fill="none" xmlns="http://www.w3.org/2000/svg">
<rect x="0.5" y="0.5" width="89" height="31" stroke="black"/>
<path d="M22.3711 11.6211V12.1484L17.291 19.4727H22.2539V20H16.5117V19.5312L21.75 12.1484H16.6289V11.6211H22.3711ZM19.9277 9.39453V10.2734H18.9609V9.39453H19.9277ZM23.748 18.2598C23.748 17.0371 24.5605 16.4258 26.1855 16.4258C26.7598 16.4258 27.373 16.4648 28.0254 16.543V15.7871C28.0254 14.8457 27.4336 14.375 26.25 14.375C25.6172 14.375 24.9688 14.4727 24.3047 14.668V14.1406C24.9688 13.9453 25.6172 13.8477 26.25 13.8477C27.8438 13.8477 28.6406 14.4844 28.6406 15.7578V20H28.2656L28.125 19.3906C27.3555 19.7969 26.6094 20 25.8867 20C24.4609 20 23.748 19.4199 23.748 18.2598ZM26.1855 16.9531C24.9707 16.9531 24.3633 17.3828 24.3633 18.2422C24.3633 19.0625 24.8711 19.4727 25.8867 19.4727C26.6367 19.4727 27.3496 19.2734 28.0254 18.875V17.0703C27.373 16.9922 26.7598 16.9531 26.1855 16.9531ZM31.2539 11.6211V20H30.6387V11.6211H31.2539ZM38.3203 13.8477V20H37.8691L37.7988 19.2148C37.0918 19.7383 36.3027 20 35.4316 20C33.9785 20 33.252 19.2363 33.252 17.709V13.8477H33.8672V17.7266C33.8672 18.875 34.3984 19.4492 35.4609 19.4492C36.2383 19.4492 36.9863 19.1895 37.7051 18.6699V13.8477H38.3203ZM40.0254 13.8477H44.5957V14.375L40.6875 19.4727H44.4785V20H39.9082V19.4727L43.8633 14.375H40.0254V13.8477ZM46.9688 11.6211V12.3242H46.2363V11.6211H46.9688ZM46.9102 13.8477V19.5312C46.9102 20.7734 46.6074 21.6484 46.002 22.1562L45.5625 21.7754C46.0508 21.3262 46.2949 20.5781 46.2949 19.5312V13.8477H46.9102ZM51.3867 13.8477C53.0703 13.8477 53.9121 14.7793 53.9121 16.6426C53.9121 16.7754 53.9082 16.9141 53.9004 17.0586H49.2305C49.2305 18.668 50.082 19.4727 51.7852 19.4727C52.4844 19.4727 53.1055 19.375 53.6484 19.1797V19.707C53.1055 19.9023 52.4844 20 51.7852 20C49.6719 20 48.6152 18.9512 48.6152 16.8535C48.6152 14.8496 49.5391 13.8477 51.3867 13.8477ZM49.2305 16.5078H53.3203C53.2969 15.0781 52.6523 14.3633 51.3867 14.3633C50.0195 14.3633 49.3008 15.0781 49.2305 16.5078ZM63.8438 11.6211V12.1484H60.9727V20H60.3574V12.1484H57.5449V11.6211H63.8438ZM64.8457 20V11.6211H65.4609L69.2402 19.2793L72.7852 11.6211H73.3418V20H72.7852V12.752L69.457 20H68.9531L65.4023 12.6934V20H64.8457Z" fill="black"/>
</svg>
