<svg width="55" height="33" viewBox="0 0 55 33" fill="none" xmlns="http://www.w3.org/2000/svg">
<rect x="0.5" y="1.5" width="54" height="31" stroke="black"/>
<path d="M19.2988 4.80176C19.4551 4.80176 19.6064 4.87663 19.7529 5.02637C19.9027 5.17285 20.0443 5.37305 20.1777 5.62695C20.3112 5.8776 20.4349 6.17057 20.5488 6.50586C20.6628 6.83789 20.7669 7.18945 20.8613 7.56055C21.0924 7.86003 21.3382 8.17415 21.5986 8.50293C21.859 8.83171 22.1276 9.16536 22.4043 9.50391C22.6842 9.84245 22.9674 10.1826 23.2539 10.5244C23.5436 10.863 23.8317 11.195 24.1182 11.5205C23.9131 10.6188 23.7585 9.80827 23.6543 9.08887C23.5501 8.36947 23.498 7.73633 23.498 7.18945C23.498 6.79557 23.5355 6.45052 23.6104 6.1543C23.6885 5.85482 23.7926 5.60579 23.9229 5.40723C24.0531 5.2054 24.2061 5.05404 24.3818 4.95312C24.5576 4.85221 24.7464 4.80176 24.9482 4.80176C25.098 4.80176 25.2282 4.8278 25.3389 4.87988C25.4528 4.93197 25.5472 5.00195 25.6221 5.08984C25.7002 5.17773 25.7572 5.27865 25.793 5.39258C25.832 5.50651 25.8516 5.62533 25.8516 5.74902C25.8516 5.91504 25.8337 6.06966 25.7979 6.21289C25.7653 6.35612 25.7295 6.48145 25.6904 6.58887C25.6416 6.71582 25.5879 6.83301 25.5293 6.94043L25.3389 6.81836C25.3519 6.78906 25.3698 6.74674 25.3926 6.69141C25.4186 6.63281 25.443 6.56283 25.4658 6.48145C25.4886 6.39681 25.5081 6.30241 25.5244 6.19824C25.5407 6.09082 25.5488 5.97526 25.5488 5.85156C25.5488 5.64974 25.5033 5.49186 25.4121 5.37793C25.321 5.26074 25.2005 5.20215 25.0508 5.20215C24.8555 5.20215 24.6895 5.26888 24.5527 5.40234C24.4193 5.53255 24.3102 5.71484 24.2256 5.94922C24.1442 6.18034 24.084 6.45378 24.0449 6.76953C24.0091 7.08203 23.9912 7.41895 23.9912 7.78027C23.9912 8.11882 24.0059 8.47201 24.0352 8.83984C24.0645 9.20443 24.1035 9.57064 24.1523 9.93848C24.2044 10.3031 24.263 10.6611 24.3281 11.0127C24.3965 11.3643 24.4697 11.693 24.5479 11.999L25.251 12.751L24.6602 13.3076C24.4681 13.1221 24.2337 12.8861 23.957 12.5996C23.6836 12.3132 23.3874 11.9893 23.0684 11.6279C22.7493 11.2666 22.4157 10.876 22.0674 10.4561C21.7223 10.0361 21.3822 9.60156 21.0469 9.15234C21.0794 9.33789 21.1006 9.53483 21.1104 9.74316C21.1234 9.94824 21.1299 10.1745 21.1299 10.4219C21.1299 10.8743 21.0762 11.2633 20.9688 11.5889C20.8613 11.9111 20.7214 12.1781 20.5488 12.3896C20.3796 12.598 20.1891 12.7526 19.9775 12.8535C19.7692 12.9512 19.5625 13 19.3574 13C19.1979 13 19.0449 12.9723 18.8984 12.917C18.7552 12.8617 18.6283 12.7803 18.5176 12.6729C18.4102 12.5654 18.3239 12.4352 18.2588 12.2822C18.1937 12.126 18.1611 11.9486 18.1611 11.75C18.1611 11.4473 18.2344 11.1543 18.3809 10.8711C18.5273 10.5879 18.7129 10.321 18.9375 10.0703L19.1279 10.168C19.0628 10.2656 19.001 10.3698 18.9424 10.4805C18.887 10.5911 18.8366 10.7051 18.791 10.8223C18.7487 10.9362 18.7145 11.0534 18.6885 11.1738C18.6624 11.2943 18.6494 11.4131 18.6494 11.5303C18.6494 11.68 18.6722 11.8167 18.7178 11.9404C18.7666 12.0609 18.8301 12.165 18.9082 12.2529C18.9863 12.3376 19.0775 12.4043 19.1816 12.4531C19.2891 12.4987 19.4014 12.5215 19.5186 12.5215C19.6715 12.5215 19.8262 12.4775 19.9824 12.3896C20.1419 12.2985 20.2852 12.1553 20.4121 11.96C20.5423 11.7614 20.6481 11.5059 20.7295 11.1934C20.8109 10.8776 20.8516 10.4967 20.8516 10.0508C20.8516 9.79362 20.8353 9.5446 20.8027 9.30371C20.7734 9.05957 20.7295 8.83171 20.6709 8.62012C20.3161 8.11556 20.0231 7.67936 19.792 7.31152C19.5641 6.94368 19.3835 6.62956 19.25 6.36914C19.1198 6.10547 19.0286 5.889 18.9766 5.71973C18.9245 5.55046 18.8984 5.41048 18.8984 5.2998C18.8984 5.12402 18.9391 4.99707 19.0205 4.91895C19.1051 4.84082 19.1979 4.80176 19.2988 4.80176ZM19.2012 5.14844C19.2012 5.18099 19.2288 5.24935 19.2842 5.35352C19.3428 5.45443 19.4242 5.58464 19.5283 5.74414C19.6357 5.90039 19.7643 6.08268 19.9141 6.29102C20.0638 6.49935 20.2314 6.72559 20.417 6.96973C20.3356 6.71257 20.2461 6.46842 20.1484 6.2373C20.054 6.00293 19.958 5.79785 19.8604 5.62207C19.7627 5.44629 19.665 5.30794 19.5674 5.20703C19.4697 5.10286 19.3802 5.05078 19.2988 5.05078C19.2337 5.05078 19.2012 5.08333 19.2012 5.14844ZM29.8457 10.9492L29.792 11.0518C29.6813 11.2731 29.5332 11.4505 29.3477 11.584C29.1654 11.7142 28.9668 11.7988 28.752 11.8379C28.6934 12.0039 28.6169 12.1585 28.5225 12.3018C28.4313 12.4417 28.3255 12.5638 28.2051 12.668C28.0879 12.7721 27.9544 12.8535 27.8047 12.9121C27.6582 12.9707 27.4987 13 27.3262 13C27.0755 13 26.8493 12.9479 26.6475 12.8438C26.4489 12.7363 26.2796 12.5931 26.1396 12.4141C25.9997 12.2318 25.8923 12.0202 25.8174 11.7793C25.7425 11.5352 25.7051 11.2747 25.7051 10.998C25.7051 10.7572 25.7327 10.5391 25.7881 10.3438C25.8434 10.1452 25.9134 9.9694 25.998 9.81641C26.0827 9.66016 26.1771 9.52507 26.2812 9.41113C26.3854 9.29395 26.488 9.19792 26.5889 9.12305C26.6898 9.04818 26.7809 8.99284 26.8623 8.95703C26.9469 8.91797 27.0104 8.89844 27.0527 8.89844L27.1162 9.06934C26.9827 9.16699 26.8639 9.30371 26.7598 9.47949C26.6686 9.62923 26.5856 9.8278 26.5107 10.0752C26.4391 10.3226 26.4033 10.6302 26.4033 10.998C26.4033 11.2227 26.4245 11.4408 26.4668 11.6523C26.5091 11.8639 26.571 12.0511 26.6523 12.2139C26.7337 12.3766 26.833 12.5068 26.9502 12.6045C27.0706 12.7021 27.2057 12.751 27.3555 12.751C27.5605 12.751 27.7298 12.6696 27.8633 12.5068C28 12.3408 28.1009 12.1146 28.166 11.8281C27.9967 11.7923 27.8356 11.7256 27.6826 11.6279C27.5296 11.5303 27.3945 11.4098 27.2773 11.2666C27.1602 11.1201 27.0658 10.9525 26.9941 10.7637C26.9258 10.5749 26.8916 10.3698 26.8916 10.1484C26.8916 9.96615 26.9144 9.80664 26.96 9.66992C27.0088 9.52995 27.0723 9.41439 27.1504 9.32324C27.2285 9.22884 27.318 9.15885 27.4189 9.11328C27.5231 9.06445 27.6322 9.04004 27.7461 9.04004C27.8796 9.04004 28.0163 9.0791 28.1562 9.15723C28.2962 9.2321 28.4232 9.34603 28.5371 9.49902C28.651 9.64876 28.7438 9.83757 28.8154 10.0654C28.887 10.2933 28.9229 10.5586 28.9229 10.8613C28.9229 10.9753 28.9163 11.0876 28.9033 11.1982C28.8903 11.3089 28.8708 11.4163 28.8447 11.5205C29.001 11.4749 29.1426 11.4017 29.2695 11.3008C29.3997 11.1999 29.5072 11.0664 29.5918 10.9004L29.6455 10.7979L29.8457 10.9492ZM27.2139 10.1094C27.2139 10.3014 27.2399 10.4788 27.292 10.6416C27.3473 10.8011 27.4206 10.9427 27.5117 11.0664C27.6029 11.1868 27.7087 11.2878 27.8291 11.3691C27.9495 11.4505 28.0781 11.5075 28.2148 11.54C28.2311 11.4489 28.2409 11.3545 28.2441 11.2568C28.2507 11.1559 28.2539 11.0534 28.2539 10.9492C28.2539 10.7181 28.236 10.5098 28.2002 10.3242C28.1644 10.1354 28.1172 9.97591 28.0586 9.8457C28 9.71224 27.9316 9.6097 27.8535 9.53809C27.7754 9.46647 27.6956 9.43066 27.6143 9.43066C27.5036 9.43066 27.4092 9.49089 27.3311 9.61133C27.2529 9.72852 27.2139 9.89453 27.2139 10.1094ZM30.3926 13C30.2428 13 30.1175 12.9577 30.0166 12.873C29.9189 12.7852 29.8408 12.668 29.7822 12.5215C29.7236 12.375 29.6813 12.2074 29.6553 12.0186C29.6325 11.8265 29.6211 11.6263 29.6211 11.418C29.6211 11.0892 29.6341 10.793 29.6602 10.5293C29.6862 10.2656 29.7171 10.0394 29.7529 9.85059C29.7887 9.65853 29.8245 9.50879 29.8604 9.40137C29.8962 9.29069 29.9222 9.22396 29.9385 9.20117C29.9613 9.17188 29.9906 9.14421 30.0264 9.11816C30.0654 9.09212 30.1045 9.07096 30.1436 9.05469C30.1826 9.03841 30.2217 9.02539 30.2607 9.01562C30.2998 9.00586 30.3324 9.00098 30.3584 9.00098C30.4333 9.00098 30.4854 9.01562 30.5146 9.04492C30.5439 9.07422 30.5586 9.1263 30.5586 9.20117C30.5553 9.20117 30.5472 9.23535 30.5342 9.30371C30.5244 9.36882 30.5114 9.45833 30.4951 9.57227C30.4788 9.6862 30.4609 9.81966 30.4414 9.97266C30.4219 10.1224 30.404 10.2819 30.3877 10.4512C30.3747 10.6204 30.3633 10.793 30.3535 10.9688C30.3438 11.1413 30.3389 11.3089 30.3389 11.4717C30.3389 11.6149 30.3438 11.7484 30.3535 11.8721C30.3633 11.9958 30.3796 12.1048 30.4023 12.1992C30.4284 12.2936 30.4593 12.3685 30.4951 12.4238C30.5342 12.4759 30.583 12.502 30.6416 12.502C30.7002 12.502 30.7555 12.4645 30.8076 12.3896C30.8597 12.3115 30.9085 12.2122 30.9541 12.0918C30.9997 11.9681 31.042 11.8314 31.0811 11.6816C31.1201 11.5286 31.1559 11.3757 31.1885 11.2227C31.221 11.0664 31.2503 10.9199 31.2764 10.7832C31.3057 10.6432 31.3301 10.526 31.3496 10.4316C31.3626 10.3828 31.387 10.3389 31.4229 10.2998C31.4619 10.2575 31.5075 10.2217 31.5596 10.1924C31.6117 10.1631 31.667 10.1403 31.7256 10.124C31.7842 10.1077 31.8395 10.0996 31.8916 10.0996C31.9307 10.0996 31.9567 10.1126 31.9697 10.1387C31.9827 10.1615 31.9893 10.1989 31.9893 10.251C31.9893 10.5439 32.0072 10.8288 32.043 11.1055C32.0788 11.3822 32.1292 11.6279 32.1943 11.8428C32.2627 12.0576 32.3424 12.2301 32.4336 12.3604C32.5247 12.4873 32.6273 12.5508 32.7412 12.5508C32.8193 12.5508 32.8926 12.5215 32.9609 12.4629C33.0293 12.401 33.0895 12.3262 33.1416 12.2383C33.1969 12.1471 33.2409 12.0511 33.2734 11.9502C33.3092 11.8493 33.332 11.7598 33.3418 11.6816C33.2116 11.6263 33.0895 11.5384 32.9756 11.418C32.8617 11.2943 32.7607 11.151 32.6729 10.9883C32.5882 10.8223 32.5215 10.6432 32.4727 10.4512C32.4238 10.2591 32.3994 10.0654 32.3994 9.87012C32.3994 9.7627 32.4108 9.6569 32.4336 9.55273C32.4564 9.44857 32.4906 9.35579 32.5361 9.27441C32.585 9.19303 32.6452 9.12793 32.7168 9.0791C32.7884 9.02702 32.873 9.00098 32.9707 9.00098C33.1009 9.00098 33.2132 9.04167 33.3076 9.12305C33.4053 9.20443 33.485 9.3151 33.5469 9.45508C33.612 9.5918 33.6608 9.7513 33.6934 9.93359C33.7259 10.1159 33.7422 10.3079 33.7422 10.5098C33.7422 10.6595 33.7324 10.8255 33.7129 11.0078C33.6934 11.1901 33.6689 11.3577 33.6396 11.5107H33.7324C33.8952 11.5107 34.0352 11.4521 34.1523 11.335C34.2728 11.2178 34.3753 11.0729 34.46 10.9004L34.5088 10.7979L34.709 10.9492L34.6602 11.0518C34.556 11.2568 34.4209 11.4245 34.2549 11.5547C34.0889 11.6849 33.8903 11.75 33.6592 11.75H33.5908C33.542 11.9258 33.4834 12.0902 33.415 12.2432C33.3467 12.3929 33.2669 12.5247 33.1758 12.6387C33.0879 12.7493 32.9902 12.8372 32.8828 12.9023C32.7754 12.9674 32.6615 13 32.541 13C32.401 13 32.2773 12.9723 32.1699 12.917C32.0658 12.8617 31.9746 12.7884 31.8965 12.6973C31.8184 12.6029 31.7516 12.4987 31.6963 12.3848C31.6442 12.2676 31.6003 12.1488 31.5645 12.0283C31.5319 11.9046 31.5059 11.7858 31.4863 11.6719C31.4668 11.5547 31.4521 11.4505 31.4424 11.3594C31.4163 11.4668 31.3887 11.5824 31.3594 11.7061C31.3301 11.8265 31.2959 11.9486 31.2568 12.0723C31.2178 12.1927 31.1722 12.3099 31.1201 12.4238C31.068 12.5345 31.0062 12.6322 30.9346 12.7168C30.8662 12.8014 30.7865 12.8698 30.6953 12.9219C30.6074 12.974 30.5065 13 30.3926 13ZM32.6826 9.87988C32.6826 10.0296 32.6989 10.1842 32.7314 10.3438C32.764 10.5 32.8112 10.6481 32.873 10.7881C32.9349 10.9281 33.0081 11.0534 33.0928 11.1641C33.1807 11.2747 33.2767 11.3594 33.3809 11.418C33.3841 11.3789 33.3874 11.3333 33.3906 11.2812C33.3971 11.2292 33.4004 11.1755 33.4004 11.1201C33.4036 11.0615 33.4053 11.0062 33.4053 10.9541C33.4085 10.8988 33.4102 10.8499 33.4102 10.8076C33.4102 10.6253 33.3988 10.4495 33.376 10.2803C33.3532 10.1077 33.3206 9.95475 33.2783 9.82129C33.236 9.68783 33.1855 9.58203 33.127 9.50391C33.0684 9.42253 33.0033 9.38184 32.9316 9.38184C32.8828 9.38184 32.8421 9.39811 32.8096 9.43066C32.777 9.45996 32.751 9.49902 32.7314 9.54785C32.7119 9.59668 32.6989 9.65039 32.6924 9.70898C32.6859 9.76758 32.6826 9.82454 32.6826 9.87988ZM35.9541 12.4482C36.068 12.4482 36.1836 12.4189 36.3008 12.3604C36.4212 12.3018 36.5417 12.2106 36.6621 12.0869C36.7858 11.9632 36.9128 11.8037 37.043 11.6084C37.1732 11.4098 37.3066 11.1738 37.4434 10.9004L37.4922 10.7979L37.6924 10.9492L37.6436 11.0518C37.4678 11.4001 37.292 11.6979 37.1162 11.9453C36.9437 12.1927 36.7728 12.3945 36.6035 12.5508C36.4375 12.707 36.2731 12.821 36.1104 12.8926C35.9476 12.9642 35.7913 13 35.6416 13C35.43 13 35.2412 12.9561 35.0752 12.8682C34.9092 12.7803 34.7692 12.6615 34.6553 12.5117C34.5413 12.3587 34.4551 12.1829 34.3965 11.9844C34.3346 11.7826 34.3037 11.571 34.3037 11.3496C34.3037 10.998 34.3525 10.679 34.4502 10.3926C34.5446 10.1029 34.6715 9.85547 34.8311 9.65039C34.9938 9.44531 35.1777 9.28581 35.3828 9.17188C35.5879 9.05794 35.8011 9.00098 36.0225 9.00098C36.2471 9.00098 36.418 9.05794 36.5352 9.17188C36.6556 9.28581 36.7158 9.42904 36.7158 9.60156C36.7158 9.76758 36.6686 9.92383 36.5742 10.0703C36.4798 10.2135 36.3512 10.3551 36.1885 10.4951C36.029 10.6318 35.8434 10.7686 35.6318 10.9053C35.4202 11.0387 35.1973 11.1771 34.9629 11.3203C34.9857 11.4896 35.0247 11.6442 35.0801 11.7842C35.1354 11.9209 35.2054 12.0397 35.29 12.1406C35.3747 12.2383 35.4723 12.3148 35.583 12.3701C35.6937 12.4222 35.8174 12.4482 35.9541 12.4482ZM36.1055 9.74805C36.1055 9.61784 36.0697 9.5153 35.998 9.44043C35.9297 9.36556 35.8451 9.32812 35.7441 9.32812C35.6595 9.32812 35.57 9.35905 35.4756 9.4209C35.3812 9.47949 35.2949 9.57552 35.2168 9.70898C35.1387 9.83919 35.0736 10.0068 35.0215 10.2119C34.9694 10.417 34.9434 10.666 34.9434 10.959V11.0713C35.054 11.0127 35.1761 10.9362 35.3096 10.8418C35.4463 10.7441 35.5732 10.6367 35.6904 10.5195C35.8076 10.4023 35.9053 10.2786 35.9834 10.1484C36.0648 10.015 36.1055 9.88151 36.1055 9.74805ZM13.8008 17.8115C13.8464 17.9352 13.9017 18.1208 13.9668 18.3682C14.0319 18.6123 14.1035 18.8955 14.1816 19.2178C14.2598 19.54 14.3411 19.89 14.4258 20.2676C14.5137 20.6452 14.5999 21.0293 14.6846 21.4199C14.7725 21.8105 14.8571 22.1963 14.9385 22.5771C15.0231 22.958 15.1012 23.3112 15.1729 23.6367C15.2445 23.9622 15.3079 24.252 15.3633 24.5059C15.4219 24.7565 15.4674 24.9486 15.5 25.082C15.5716 24.8997 15.6546 24.6751 15.749 24.4082C15.8467 24.1413 15.9508 23.8499 16.0615 23.5342C16.1755 23.2152 16.2926 22.8783 16.4131 22.5234C16.5368 22.1654 16.6605 21.8057 16.7842 21.4443C16.9111 21.0798 17.0381 20.7201 17.165 20.3652C17.292 20.0104 17.4141 19.6751 17.5312 19.3594C17.6484 19.0404 17.7591 18.749 17.8633 18.4854C17.9707 18.2184 18.0667 17.9938 18.1514 17.8115L18.5518 17.8604C18.4932 18.0654 18.4346 18.3047 18.376 18.5781C18.3174 18.8483 18.2604 19.1429 18.2051 19.4619C18.153 19.7777 18.1025 20.1113 18.0537 20.4629C18.0049 20.8112 17.9626 21.1628 17.9268 21.5176C17.891 21.8724 17.8617 22.224 17.8389 22.5723C17.8193 22.9206 17.8096 23.2526 17.8096 23.5684C17.8096 24.1836 17.8535 24.6507 17.9414 24.9697C18.0293 25.2887 18.166 25.4482 18.3516 25.4482C18.4329 25.4482 18.5111 25.4157 18.5859 25.3506C18.6641 25.2855 18.7454 25.1878 18.8301 25.0576C18.918 24.9274 19.0107 24.7663 19.1084 24.5742C19.2093 24.3789 19.3232 24.1543 19.4502 23.9004L19.499 23.7979L19.6992 23.9492L19.6504 24.0518C19.4876 24.3773 19.3411 24.6621 19.2109 24.9062C19.084 25.1471 18.9603 25.349 18.8398 25.5117C18.7227 25.6745 18.6038 25.7965 18.4834 25.8779C18.3662 25.9593 18.2376 26 18.0977 26C17.9023 26 17.7396 25.9528 17.6094 25.8584C17.4792 25.7607 17.3734 25.624 17.292 25.4482C17.2139 25.2692 17.1569 25.0527 17.1211 24.7988C17.0885 24.5449 17.0723 24.2585 17.0723 23.9395C17.0723 23.5911 17.0902 23.2266 17.126 22.8457C17.1618 22.4616 17.2041 22.0889 17.2529 21.7275C17.305 21.3662 17.3571 21.0326 17.4092 20.7266C17.4645 20.4173 17.5117 20.1618 17.5508 19.96L15.3486 26.249L14.9482 26.1514C14.9482 26.083 14.9271 25.9382 14.8848 25.7168C14.8424 25.4922 14.7871 25.222 14.7188 24.9062C14.6504 24.5872 14.5723 24.2373 14.4844 23.8564C14.3997 23.4723 14.3118 23.0866 14.2207 22.6992C14.0091 21.7878 13.7682 20.7754 13.498 19.6621C13.5078 19.8965 13.5192 20.1325 13.5322 20.3701C13.542 20.5752 13.5501 20.7949 13.5566 21.0293C13.5664 21.2604 13.5713 21.4769 13.5713 21.6787C13.5713 22.2679 13.5371 22.7904 13.4688 23.2461C13.4036 23.7018 13.3141 24.099 13.2002 24.4375C13.0863 24.7728 12.9528 25.056 12.7998 25.2871C12.6468 25.5182 12.484 25.7038 12.3115 25.8438C12.139 25.9837 11.9616 26.0846 11.7793 26.1465C11.6003 26.2083 11.4245 26.2393 11.252 26.2393C11.0794 26.2393 10.9183 26.21 10.7686 26.1514C10.6156 26.096 10.4837 26.0179 10.373 25.917C10.2591 25.8128 10.1696 25.6924 10.1045 25.5557C10.0361 25.4157 10.002 25.2643 10.002 25.1016C10.002 24.9095 10.0345 24.7256 10.0996 24.5498C10.1615 24.374 10.2493 24.2096 10.3633 24.0566C10.474 23.9004 10.6058 23.7555 10.7588 23.6221C10.9118 23.4886 11.0762 23.3649 11.252 23.251L11.3984 23.4023C11.2747 23.4902 11.1608 23.5895 11.0566 23.7002C10.9525 23.8076 10.863 23.9248 10.7881 24.0518C10.7132 24.1755 10.6546 24.3057 10.6123 24.4424C10.57 24.5758 10.5488 24.7109 10.5488 24.8477C10.5488 24.9746 10.57 25.0934 10.6123 25.2041C10.6514 25.3148 10.71 25.4124 10.7881 25.4971C10.863 25.5817 10.9541 25.6484 11.0615 25.6973C11.1657 25.7461 11.2845 25.7705 11.418 25.7705C11.5547 25.7705 11.6963 25.7428 11.8428 25.6875C11.9893 25.6289 12.1309 25.5345 12.2676 25.4043C12.4076 25.2708 12.5394 25.0967 12.6631 24.8818C12.79 24.6637 12.8991 24.3968 12.9902 24.0811C13.0846 23.762 13.1595 23.3893 13.2148 22.9629C13.2702 22.5365 13.2979 22.0449 13.2979 21.4883C13.2979 21.3288 13.293 21.1416 13.2832 20.9268C13.2767 20.7119 13.2653 20.4873 13.249 20.2529C13.236 20.0186 13.2197 19.7842 13.2002 19.5498C13.1807 19.3122 13.1595 19.0924 13.1367 18.8906C13.1172 18.6855 13.0944 18.5065 13.0684 18.3535C13.0456 18.1973 13.0228 18.0833 13 18.0117L13.8008 17.8115ZM22.458 24.7891C22.458 24.9746 22.4743 25.1309 22.5068 25.2578C22.5394 25.3848 22.5964 25.4482 22.6777 25.4482C22.7266 25.4482 22.7786 25.4255 22.834 25.3799C22.8926 25.3311 22.9593 25.2529 23.0342 25.1455C23.109 25.0381 23.1937 24.8997 23.2881 24.7305C23.3857 24.5579 23.4964 24.348 23.6201 24.1006L23.7666 23.7979L23.9668 23.9492L23.8203 24.252C23.6836 24.5254 23.555 24.7712 23.4346 24.9893C23.3174 25.2041 23.2051 25.3864 23.0977 25.5361C22.9902 25.6859 22.8844 25.8014 22.7803 25.8828C22.6794 25.9609 22.5785 26 22.4775 26C22.3701 26 22.279 25.9707 22.2041 25.9121C22.1325 25.8535 22.0723 25.7738 22.0234 25.6729C21.9746 25.5687 21.9372 25.4499 21.9111 25.3164C21.8851 25.1797 21.8672 25.0348 21.8574 24.8818C21.7793 25.0381 21.693 25.1846 21.5986 25.3213C21.5042 25.4548 21.4049 25.5719 21.3008 25.6729C21.1999 25.7738 21.0941 25.8535 20.9834 25.9121C20.8727 25.9707 20.762 26 20.6514 26C20.4886 26 20.3307 25.9658 20.1777 25.8975C20.0247 25.8291 19.888 25.7249 19.7676 25.585C19.6504 25.445 19.556 25.2692 19.4844 25.0576C19.4128 24.8428 19.377 24.5905 19.377 24.3008C19.377 23.9622 19.4209 23.653 19.5088 23.373C19.5967 23.0898 19.7155 22.8473 19.8652 22.6455C20.015 22.4404 20.1875 22.2826 20.3828 22.1719C20.5781 22.0579 20.7832 22.001 20.998 22.001C21.1283 22.001 21.2487 22.0303 21.3594 22.0889C21.4701 22.1475 21.5661 22.2191 21.6475 22.3037C21.7321 22.3851 21.8021 22.473 21.8574 22.5674C21.9128 22.6585 21.9502 22.7367 21.9697 22.8018L22.0283 22.3281C22.0348 22.2663 22.0641 22.2142 22.1162 22.1719C22.1715 22.1296 22.2318 22.097 22.2969 22.0742C22.362 22.0482 22.4255 22.0303 22.4873 22.0205C22.5492 22.0075 22.5931 22.001 22.6191 22.001C22.6582 22.001 22.6842 22.0075 22.6973 22.0205C22.7103 22.0335 22.7168 22.0596 22.7168 22.0986C22.7168 22.1475 22.7021 22.2467 22.6729 22.3965C22.6468 22.543 22.6175 22.7318 22.585 22.9629C22.5557 23.1908 22.5264 23.4593 22.4971 23.7686C22.471 24.0778 22.458 24.418 22.458 24.7891ZM21.9209 23.5C21.9209 23.3503 21.8981 23.2038 21.8525 23.0605C21.807 22.9141 21.7451 22.7855 21.667 22.6748C21.5889 22.5609 21.4977 22.4697 21.3936 22.4014C21.2926 22.333 21.1852 22.2988 21.0713 22.2988C20.9313 22.2988 20.7995 22.3395 20.6758 22.4209C20.5553 22.499 20.4495 22.6113 20.3584 22.7578C20.2705 22.901 20.2005 23.0752 20.1484 23.2803C20.0964 23.4821 20.0703 23.7051 20.0703 23.9492C20.0703 24.4375 20.1468 24.8102 20.2998 25.0674C20.4528 25.3213 20.6562 25.4482 20.9102 25.4482C21.0208 25.4482 21.1348 25.4043 21.252 25.3164C21.3724 25.2253 21.4814 25.0967 21.5791 24.9307C21.68 24.7614 21.7614 24.5563 21.8232 24.3154C21.8883 24.0745 21.9209 23.8027 21.9209 23.5ZM23.7471 24.3984C23.7471 24.0534 23.7601 23.7067 23.7861 23.3584C23.8122 23.0101 23.8464 22.6569 23.8887 22.2988H23.4443L23.498 22.001H23.9277C23.9733 21.6689 24.0189 21.3369 24.0645 21.0049C24.1133 20.6696 24.1572 20.3343 24.1963 19.999H24.6943C24.6878 20.0706 24.6781 20.1748 24.665 20.3115C24.6553 20.445 24.6423 20.6012 24.626 20.7803C24.613 20.9561 24.5999 21.1497 24.5869 21.3613C24.5739 21.5697 24.5609 21.7829 24.5479 22.001H25.4951L25.4463 22.2988H24.5283C24.5153 22.4844 24.5039 22.6667 24.4941 22.8457C24.4844 23.0247 24.4746 23.1956 24.4648 23.3584C24.4583 23.5179 24.4535 23.666 24.4502 23.8027C24.4469 23.9362 24.4453 24.0518 24.4453 24.1494C24.4453 24.3968 24.4518 24.6035 24.4648 24.7695C24.4811 24.9355 24.5039 25.069 24.5332 25.1699C24.5658 25.2708 24.6048 25.3424 24.6504 25.3848C24.6992 25.4271 24.7546 25.4482 24.8164 25.4482C24.8978 25.4482 24.9873 25.4076 25.085 25.3262C25.1859 25.2415 25.29 25.1292 25.3975 24.9893C25.5049 24.8493 25.6139 24.6865 25.7246 24.501C25.8353 24.3122 25.9427 24.112 26.0469 23.9004L26.0957 23.7979L26.2959 23.9492L26.2471 24.0518C26.0973 24.3545 25.9476 24.6263 25.7979 24.8672C25.6514 25.1081 25.5065 25.3132 25.3633 25.4824C25.2201 25.6484 25.0801 25.777 24.9434 25.8682C24.8066 25.9561 24.6748 26 24.5479 26C24.4209 26 24.307 25.9707 24.2061 25.9121C24.1084 25.8535 24.0254 25.7607 23.957 25.6338C23.8887 25.5036 23.8366 25.3376 23.8008 25.1357C23.765 24.9339 23.7471 24.6882 23.7471 24.3984ZM27.541 25.4482C27.6549 25.4482 27.7705 25.4189 27.8877 25.3604C28.0081 25.3018 28.1286 25.2106 28.249 25.0869C28.3727 24.9632 28.4997 24.8037 28.6299 24.6084C28.7601 24.4098 28.8936 24.1738 29.0303 23.9004L29.0791 23.7979L29.2793 23.9492L29.2305 24.0518C29.0547 24.4001 28.8789 24.6979 28.7031 24.9453C28.5306 25.1927 28.3597 25.3945 28.1904 25.5508C28.0244 25.707 27.86 25.821 27.6973 25.8926C27.5345 25.9642 27.3783 26 27.2285 26C27.0169 26 26.8281 25.9561 26.6621 25.8682C26.4961 25.7803 26.3561 25.6615 26.2422 25.5117C26.1283 25.3587 26.042 25.1829 25.9834 24.9844C25.9215 24.7826 25.8906 24.571 25.8906 24.3496C25.8906 23.998 25.9395 23.679 26.0371 23.3926C26.1315 23.1029 26.2585 22.8555 26.418 22.6504C26.5807 22.4453 26.7646 22.2858 26.9697 22.1719C27.1748 22.0579 27.388 22.001 27.6094 22.001C27.834 22.001 28.0049 22.0579 28.1221 22.1719C28.2425 22.2858 28.3027 22.429 28.3027 22.6016C28.3027 22.7676 28.2555 22.9238 28.1611 23.0703C28.0667 23.2135 27.9382 23.3551 27.7754 23.4951C27.6159 23.6318 27.4303 23.7686 27.2188 23.9053C27.0072 24.0387 26.7842 24.1771 26.5498 24.3203C26.5726 24.4896 26.6117 24.6442 26.667 24.7842C26.7223 24.9209 26.7923 25.0397 26.877 25.1406C26.9616 25.2383 27.0592 25.3148 27.1699 25.3701C27.2806 25.4222 27.4043 25.4482 27.541 25.4482ZM27.6924 22.748C27.6924 22.6178 27.6566 22.5153 27.585 22.4404C27.5166 22.3656 27.432 22.3281 27.3311 22.3281C27.2464 22.3281 27.1569 22.359 27.0625 22.4209C26.9681 22.4795 26.8818 22.5755 26.8037 22.709C26.7256 22.8392 26.6605 23.0068 26.6084 23.2119C26.5563 23.417 26.5303 23.666 26.5303 23.959V24.0713C26.641 24.0127 26.763 23.9362 26.8965 23.8418C27.0332 23.7441 27.1602 23.6367 27.2773 23.5195C27.3945 23.4023 27.4922 23.2786 27.5703 23.1484C27.6517 23.015 27.6924 22.8815 27.6924 22.748ZM29.0303 23.9004L29.0791 23.7979C29.1279 23.7002 29.1719 23.5993 29.2109 23.4951C29.2533 23.391 29.2891 23.2933 29.3184 23.2021C29.3477 23.1077 29.3704 23.0247 29.3867 22.9531C29.403 22.8783 29.4144 22.8213 29.4209 22.7822C29.3363 22.7725 29.2549 22.7513 29.1768 22.7188C29.0986 22.6862 29.0303 22.6423 28.9717 22.5869C28.9131 22.5316 28.8675 22.4665 28.835 22.3916C28.7992 22.3167 28.7812 22.2321 28.7812 22.1377C28.7812 22.0628 28.7943 21.9961 28.8203 21.9375C28.8464 21.8789 28.8822 21.8301 28.9277 21.791C28.9701 21.752 29.0189 21.7227 29.0742 21.7031C29.1263 21.6803 29.1816 21.6689 29.2402 21.6689C29.3184 21.6689 29.3867 21.6852 29.4453 21.7178C29.5039 21.7503 29.5527 21.7943 29.5918 21.8496C29.6309 21.9017 29.6602 21.9635 29.6797 22.0352C29.6992 22.1035 29.709 22.1751 29.709 22.25C29.8001 22.25 29.8978 22.237 30.002 22.2109C30.1094 22.1849 30.2168 22.1572 30.3242 22.1279C30.4316 22.0954 30.5374 22.0661 30.6416 22.04C30.7458 22.014 30.8418 22.001 30.9297 22.001C31.0046 22.001 31.0648 22.0173 31.1104 22.0498C31.1559 22.0791 31.1787 22.1296 31.1787 22.2012C31.1787 22.2533 31.1624 22.3395 31.1299 22.46C31.1006 22.5804 31.0632 22.7204 31.0176 22.8799C30.972 23.0394 30.9215 23.2135 30.8662 23.4023C30.8141 23.5879 30.7653 23.7767 30.7197 23.9688C30.6742 24.1576 30.6351 24.3415 30.6025 24.5205C30.5732 24.6995 30.5586 24.859 30.5586 24.999C30.5586 25.1748 30.5781 25.2936 30.6172 25.3555C30.6562 25.4173 30.7262 25.4482 30.8271 25.4482C30.8695 25.4482 30.9215 25.4303 30.9834 25.3945C31.0485 25.3555 31.1266 25.2822 31.2178 25.1748C31.3089 25.0641 31.4163 24.9079 31.54 24.7061C31.667 24.501 31.8135 24.2324 31.9795 23.9004L32.0283 23.7979L32.2285 23.9492L32.1797 24.0518C31.9844 24.4424 31.8102 24.763 31.6572 25.0137C31.5042 25.2643 31.3626 25.4629 31.2324 25.6094C31.1055 25.7559 30.985 25.8584 30.8711 25.917C30.7572 25.9723 30.6432 26 30.5293 26C30.3372 26 30.181 25.9268 30.0605 25.7803C29.9401 25.6338 29.8799 25.4076 29.8799 25.1016C29.8799 24.9355 29.9027 24.763 29.9482 24.584C29.9938 24.4049 30.0508 24.2275 30.1191 24.0518C30.1875 23.8727 30.264 23.6969 30.3486 23.5244C30.4333 23.3519 30.513 23.1891 30.5879 23.0361C30.666 22.8799 30.736 22.735 30.7979 22.6016C30.8597 22.4681 30.9036 22.3509 30.9297 22.25L30.9004 22.2207C30.8483 22.2207 30.7783 22.2484 30.6904 22.3037C30.6025 22.359 30.5033 22.4225 30.3926 22.4941C30.2852 22.5625 30.1696 22.6276 30.0459 22.6895C29.9222 22.7513 29.7969 22.7887 29.6699 22.8018C29.6634 22.8473 29.6488 22.9141 29.626 23.002C29.6064 23.0898 29.5788 23.1875 29.543 23.2949C29.5072 23.4023 29.4665 23.513 29.4209 23.627C29.3753 23.7409 29.3281 23.8483 29.2793 23.9492L29.2305 24.0518L29.0303 23.9004ZM29.2695 21.9424C29.2402 21.9424 29.2158 21.9521 29.1963 21.9717C29.1768 21.9912 29.167 22.014 29.167 22.04C29.167 22.0791 29.1768 22.1133 29.1963 22.1426C29.2158 22.1686 29.2402 22.1914 29.2695 22.2109C29.2988 22.2272 29.3281 22.2402 29.3574 22.25C29.39 22.2565 29.4176 22.2598 29.4404 22.2598C29.4404 22.1686 29.4258 22.0938 29.3965 22.0352C29.3672 21.9733 29.3249 21.9424 29.2695 21.9424ZM32.2773 23.8516L32.2285 23.9492L32.1797 24.0518L31.9795 23.9004L32.0283 23.7979C32.1097 23.6318 32.1764 23.4658 32.2285 23.2998C32.2839 23.1305 32.3278 22.9727 32.3604 22.8262C32.3962 22.6797 32.4255 22.5511 32.4482 22.4404C32.471 22.3298 32.4938 22.25 32.5166 22.2012C32.5361 22.1621 32.5638 22.1312 32.5996 22.1084C32.6387 22.0824 32.6777 22.0612 32.7168 22.0449C32.7591 22.0286 32.7982 22.0173 32.834 22.0107C32.873 22.0042 32.9007 22.001 32.917 22.001C32.9886 22.001 33.0358 22.0156 33.0586 22.0449C33.0846 22.0742 33.0977 22.1263 33.0977 22.2012C33.0977 22.237 33.0895 22.3265 33.0732 22.4697C33.0602 22.6097 33.0439 22.7871 33.0244 23.002C33.0081 23.2135 32.9919 23.4528 32.9756 23.7197C32.9626 23.9834 32.9561 24.2568 32.9561 24.54C32.9561 24.7451 32.9658 24.9079 32.9854 25.0283C33.0049 25.1455 33.0293 25.2334 33.0586 25.292C33.0911 25.3506 33.1253 25.388 33.1611 25.4043C33.2002 25.4206 33.2393 25.4287 33.2783 25.4287C33.3304 25.4287 33.389 25.4059 33.4541 25.3604C33.5192 25.3148 33.5957 25.235 33.6836 25.1211C33.7715 25.0039 33.8724 24.8477 33.9863 24.6523C34.1003 24.4538 34.2337 24.2031 34.3867 23.9004L34.4404 23.7979L34.6406 23.9492L34.5869 24.0518C34.4632 24.2926 34.3395 24.5303 34.2158 24.7646C34.0954 24.999 33.9717 25.2074 33.8447 25.3896C33.721 25.5719 33.5957 25.7201 33.4688 25.834C33.3418 25.9447 33.2148 26 33.0879 26C32.9544 26 32.8389 25.974 32.7412 25.9219C32.6468 25.8665 32.5671 25.777 32.502 25.6533C32.4401 25.5296 32.3929 25.3669 32.3604 25.165C32.3311 24.96 32.3164 24.7077 32.3164 24.4082C32.3164 24.3236 32.3164 24.2357 32.3164 24.1445C32.3164 24.0501 32.3197 23.9525 32.3262 23.8516H32.2773ZM33.2783 21C33.2783 21.1139 33.2393 21.21 33.1611 21.2881C33.0863 21.363 32.9919 21.4004 32.8779 21.4004C32.7673 21.4004 32.6729 21.363 32.5947 21.2881C32.5166 21.21 32.4775 21.1139 32.4775 21C32.4775 20.8893 32.5166 20.7949 32.5947 20.7168C32.6729 20.6387 32.7673 20.5996 32.8779 20.5996C32.9919 20.5996 33.0863 20.6387 33.1611 20.7168C33.2393 20.7949 33.2783 20.8893 33.2783 21ZM37.3994 24.7891C37.3994 24.9746 37.4157 25.1309 37.4482 25.2578C37.4808 25.3848 37.5378 25.4482 37.6191 25.4482C37.668 25.4482 37.7201 25.4255 37.7754 25.3799C37.834 25.3311 37.9007 25.2529 37.9756 25.1455C38.0505 25.0381 38.1351 24.8997 38.2295 24.7305C38.3271 24.5579 38.4378 24.348 38.5615 24.1006L38.708 23.7979L38.9082 23.9492L38.7617 24.252C38.625 24.5254 38.4964 24.7712 38.376 24.9893C38.2588 25.2041 38.1465 25.3864 38.0391 25.5361C37.9316 25.6859 37.8258 25.8014 37.7217 25.8828C37.6208 25.9609 37.5199 26 37.4189 26C37.3115 26 37.2204 25.9707 37.1455 25.9121C37.0739 25.8535 37.0137 25.7738 36.9648 25.6729C36.916 25.5687 36.8786 25.4499 36.8525 25.3164C36.8265 25.1797 36.8086 25.0348 36.7988 24.8818C36.7207 25.0381 36.6344 25.1846 36.54 25.3213C36.4456 25.4548 36.3464 25.5719 36.2422 25.6729C36.1413 25.7738 36.0355 25.8535 35.9248 25.9121C35.8141 25.9707 35.7035 26 35.5928 26C35.43 26 35.2721 25.9658 35.1191 25.8975C34.9661 25.8291 34.8294 25.7249 34.709 25.585C34.5918 25.445 34.4974 25.2692 34.4258 25.0576C34.3542 24.8428 34.3184 24.5905 34.3184 24.3008C34.3184 23.9622 34.3623 23.653 34.4502 23.373C34.5381 23.0898 34.6569 22.8473 34.8066 22.6455C34.9564 22.4404 35.1289 22.2826 35.3242 22.1719C35.5195 22.0579 35.7246 22.001 35.9395 22.001C36.0697 22.001 36.1901 22.0303 36.3008 22.0889C36.4115 22.1475 36.5075 22.2191 36.5889 22.3037C36.6735 22.3851 36.7435 22.473 36.7988 22.5674C36.8542 22.6585 36.8916 22.7367 36.9111 22.8018L36.9697 22.3281C36.9762 22.2663 37.0055 22.2142 37.0576 22.1719C37.113 22.1296 37.1732 22.097 37.2383 22.0742C37.3034 22.0482 37.3669 22.0303 37.4287 22.0205C37.4906 22.0075 37.5345 22.001 37.5605 22.001C37.5996 22.001 37.6257 22.0075 37.6387 22.0205C37.6517 22.0335 37.6582 22.0596 37.6582 22.0986C37.6582 22.1475 37.6436 22.2467 37.6143 22.3965C37.5882 22.543 37.5589 22.7318 37.5264 22.9629C37.4971 23.1908 37.4678 23.4593 37.4385 23.7686C37.4124 24.0778 37.3994 24.418 37.3994 24.7891ZM36.8623 23.5C36.8623 23.3503 36.8395 23.2038 36.7939 23.0605C36.7484 22.9141 36.6865 22.7855 36.6084 22.6748C36.5303 22.5609 36.4391 22.4697 36.335 22.4014C36.234 22.333 36.1266 22.2988 36.0127 22.2988C35.8727 22.2988 35.7409 22.3395 35.6172 22.4209C35.4967 22.499 35.391 22.6113 35.2998 22.7578C35.2119 22.901 35.1419 23.0752 35.0898 23.2803C35.0378 23.4821 35.0117 23.7051 35.0117 23.9492C35.0117 24.4375 35.0882 24.8102 35.2412 25.0674C35.3942 25.3213 35.5977 25.4482 35.8516 25.4482C35.9622 25.4482 36.0762 25.4043 36.1934 25.3164C36.3138 25.2253 36.4229 25.0967 36.5205 24.9307C36.6214 24.7614 36.7028 24.5563 36.7646 24.3154C36.8298 24.0745 36.8623 23.8027 36.8623 23.5ZM39.8555 22.4697C39.7871 22.5218 39.7074 22.5674 39.6162 22.6064C39.5251 22.6455 39.429 22.6829 39.3281 22.7188V22.9922C39.3281 23.487 39.3395 23.8906 39.3623 24.2031C39.3851 24.5124 39.416 24.7549 39.4551 24.9307C39.4941 25.1032 39.5397 25.222 39.5918 25.2871C39.6439 25.349 39.6992 25.3799 39.7578 25.3799C39.8164 25.3799 39.8831 25.3424 39.958 25.2676C40.0361 25.1895 40.1191 25.0837 40.207 24.9502C40.2949 24.8167 40.3877 24.6605 40.4854 24.4814C40.583 24.3024 40.6839 24.1087 40.7881 23.9004L40.8369 23.7979L41.0371 23.9492L40.9883 24.0518C40.8158 24.3968 40.6611 24.693 40.5244 24.9404C40.391 25.1846 40.2656 25.3864 40.1484 25.5459C40.0312 25.7021 39.9189 25.8177 39.8115 25.8926C39.7074 25.9642 39.5999 26 39.4893 26C39.1995 26 38.9847 25.821 38.8447 25.4629C38.708 25.1016 38.6396 24.5465 38.6396 23.7979C38.6396 23.6579 38.6413 23.5212 38.6445 23.3877C38.6445 23.2542 38.6462 23.124 38.6494 22.9971C38.6299 23.0068 38.612 23.0182 38.5957 23.0312C38.5762 23.041 38.5583 23.0524 38.542 23.0654C38.4541 23.1305 38.3874 23.2005 38.3418 23.2754C38.293 23.3503 38.2588 23.4219 38.2393 23.4902C38.2197 23.5586 38.21 23.6204 38.21 23.6758C38.21 23.7311 38.2132 23.7734 38.2197 23.8027L37.9658 23.7979C37.93 23.5732 37.943 23.3682 38.0049 23.1826C38.0635 22.9938 38.1904 22.8278 38.3857 22.6846C38.4215 22.6585 38.4639 22.6309 38.5127 22.6016C38.5615 22.5723 38.6136 22.5413 38.6689 22.5088C38.6917 22.0107 38.7227 21.5762 38.7617 21.2051C38.804 20.8307 38.8447 20.5166 38.8838 20.2627C38.9294 19.9665 38.9782 19.7126 39.0303 19.501L39.4258 19.6182C39.4128 19.8656 39.3997 20.1292 39.3867 20.4092C39.377 20.6501 39.3672 20.9235 39.3574 21.2295C39.3477 21.5355 39.3395 21.8512 39.333 22.1768C39.4046 22.141 39.4681 22.1084 39.5234 22.0791C39.5788 22.0498 39.6195 22.0254 39.6455 22.0059C39.7497 21.931 39.8311 21.8545 39.8896 21.7764C39.9482 21.6982 39.9759 21.612 39.9727 21.5176L40.1484 21.5127C40.2233 21.9554 40.1257 22.2744 39.8555 22.4697ZM41.1445 22.1377C41.1576 22.1051 41.1885 22.0791 41.2373 22.0596C41.2861 22.04 41.3382 22.027 41.3936 22.0205C41.4489 22.0107 41.501 22.0059 41.5498 22.0059C41.5986 22.0026 41.6312 22.001 41.6475 22.001C41.6963 22.001 41.7272 22.014 41.7402 22.04C41.7565 22.0628 41.7646 22.1003 41.7646 22.1523C41.7646 22.1784 41.7565 22.237 41.7402 22.3281C41.724 22.416 41.7028 22.5267 41.6768 22.6602C41.654 22.7936 41.6279 22.945 41.5986 23.1143C41.5726 23.2835 41.5465 23.4577 41.5205 23.6367C41.4977 23.8158 41.4782 23.998 41.4619 24.1836C41.4456 24.3659 41.4375 24.5384 41.4375 24.7012C41.4375 24.9844 41.4847 25.1976 41.5791 25.3408C41.6735 25.4808 41.7826 25.5508 41.9062 25.5508C42.1211 25.5508 42.3115 25.3929 42.4775 25.0771C42.6436 24.7614 42.8161 24.2992 42.9951 23.6904V22.2695C42.9951 22.2142 43.0195 22.1702 43.0684 22.1377C43.1204 22.1019 43.179 22.0742 43.2441 22.0547C43.3092 22.0352 43.3727 22.0221 43.4346 22.0156C43.4964 22.0059 43.5404 22.001 43.5664 22.001C43.6673 22.001 43.7178 22.0514 43.7178 22.1523C43.7178 22.1882 43.7145 22.2484 43.708 22.333C43.7048 22.4144 43.6999 22.512 43.6934 22.626C43.6868 22.7367 43.6803 22.8604 43.6738 22.9971C43.6706 23.1305 43.6689 23.2656 43.6689 23.4023V25.3896C43.7275 25.3148 43.8008 25.2155 43.8887 25.0918C43.9798 24.9681 44.0726 24.8363 44.167 24.6963C44.2646 24.5563 44.3574 24.4163 44.4453 24.2764C44.5365 24.1364 44.6097 24.0111 44.665 23.9004L44.7188 23.7979L44.9189 23.9492L44.8652 24.0518C44.7969 24.1885 44.7155 24.3301 44.6211 24.4766C44.5267 24.623 44.4258 24.7712 44.3184 24.9209C44.2142 25.0674 44.1051 25.2139 43.9912 25.3604C43.8805 25.5036 43.7731 25.6403 43.6689 25.7705V26.8496C43.6689 27.1491 43.6413 27.403 43.5859 27.6113C43.5339 27.8229 43.4606 27.9938 43.3662 28.124C43.2718 28.2575 43.1611 28.3535 43.0342 28.4121C42.9072 28.4707 42.7689 28.5 42.6191 28.5C42.5247 28.5 42.4368 28.4854 42.3555 28.4561C42.2773 28.4268 42.209 28.3828 42.1504 28.3242C42.0918 28.2689 42.0462 28.2005 42.0137 28.1191C41.9811 28.041 41.9648 27.9515 41.9648 27.8506C41.9648 27.7041 41.9909 27.5576 42.043 27.4111C42.0983 27.2646 42.1732 27.1133 42.2676 26.957C42.3652 26.8008 42.4775 26.6396 42.6045 26.4736C42.7314 26.3109 42.8682 26.14 43.0146 25.9609V24.4814C42.9333 24.7028 42.8454 24.9079 42.751 25.0967C42.6566 25.2822 42.554 25.4417 42.4434 25.5752C42.3327 25.7087 42.2139 25.8128 42.0869 25.8877C41.96 25.9626 41.8232 26 41.6768 26C41.5726 26 41.4652 25.9837 41.3545 25.9512C41.2471 25.9154 41.1462 25.8519 41.0518 25.7607C40.9606 25.6696 40.8857 25.5475 40.8271 25.3945C40.7686 25.2383 40.7393 25.0397 40.7393 24.7988C40.7393 24.5254 40.7555 24.2471 40.7881 23.9639C40.8206 23.6807 40.8581 23.417 40.9004 23.1729C40.946 22.9287 40.9915 22.7155 41.0371 22.5332C41.0827 22.3477 41.1185 22.2158 41.1445 22.1377ZM42.5654 28.2021C42.6175 28.2021 42.6696 28.1908 42.7217 28.168C42.777 28.1484 42.8258 28.1012 42.8682 28.0264C42.9105 27.9515 42.9447 27.8408 42.9707 27.6943C43 27.5479 43.0146 27.3493 43.0146 27.0986V26.3613C42.904 26.498 42.8014 26.6299 42.707 26.7568C42.6159 26.887 42.5361 27.0124 42.4678 27.1328C42.3994 27.2565 42.3457 27.3753 42.3066 27.4893C42.2676 27.6032 42.248 27.7139 42.248 27.8213C42.248 27.9222 42.2757 28.0101 42.3311 28.085C42.3864 28.1631 42.4645 28.2021 42.5654 28.2021Z" fill="black"/>
</svg>
