<svg width="90" height="32" viewBox="0 0 90 32" fill="none" xmlns="http://www.w3.org/2000/svg">
<rect x="0.5" y="0.5" width="89" height="31" stroke="black"/>
<path d="M16.2422 12.1016L14.7773 13.1973L15.0059 18.8984L16.1836 19.4375L12.6152 20.1816L14.0684 18.8984L13.1074 14.252L11.8008 19.4375L8.9707 14.7207L8.20312 18.9688L9.32812 19.918L6.35156 20.0703L7.5293 19.0039L7.89258 12.8867L6.65625 12.1016L9.54492 11.9609L11.4902 17.457L12.9785 12.0195L16.2422 12.1016ZM16.3828 17.0586C16.3828 16.6211 16.4512 16.2168 16.5879 15.8457C16.7285 15.4707 16.9219 15.1465 17.168 14.873C17.418 14.5996 17.7129 14.3867 18.0527 14.2344C18.3965 14.0781 18.7715 14 19.1777 14C19.5723 14 19.9336 14.0742 20.2617 14.2227C20.5898 14.3672 20.875 14.5723 21.1172 14.8379C21.3594 15.1035 21.5527 15.4219 21.6973 15.793C21.8418 16.1641 21.9277 16.5742 21.9551 17.0234C21.9824 17.5039 21.9316 17.9395 21.8027 18.3301C21.6777 18.7168 21.4922 19.0469 21.2461 19.3203C21 19.5898 20.7051 19.7988 20.3613 19.9473C20.0215 20.0957 19.6523 20.1699 19.2539 20.1699C18.8711 20.1699 18.5059 20.1016 18.1582 19.9648C17.8145 19.8242 17.5098 19.6211 17.2441 19.3555C16.9824 19.0898 16.7734 18.7656 16.6172 18.3828C16.4609 17.9961 16.3828 17.5547 16.3828 17.0586ZM17.8242 17.1582C17.8242 17.502 17.873 17.8125 17.9707 18.0898C18.0684 18.3672 18.1992 18.6035 18.3633 18.7988C18.5273 18.9902 18.7168 19.1387 18.9316 19.2441C19.1465 19.3496 19.373 19.4023 19.6113 19.4023C19.8496 19.4023 20.0723 19.3516 20.2793 19.25C20.4863 19.1445 20.666 18.998 20.8184 18.8105C20.9707 18.6191 21.0898 18.3906 21.1758 18.125C21.2617 17.8594 21.3047 17.5645 21.3047 17.2402C21.3047 16.9199 21.2617 16.6191 21.1758 16.3379C21.0898 16.0527 20.9688 15.8047 20.8125 15.5938C20.6602 15.3828 20.4785 15.2168 20.2676 15.0957C20.0566 14.9746 19.8262 14.9141 19.5762 14.9141C19.3535 14.9141 19.1367 14.9648 18.9258 15.0664C18.7188 15.168 18.5332 15.3164 18.3691 15.5117C18.2051 15.7031 18.0723 15.9375 17.9707 16.2148C17.873 16.4922 17.8242 16.8066 17.8242 17.1582ZM27.5156 19.2676L28.8105 19.748L26.6895 20.1582L26.7129 19.0156C26.6191 19.1758 26.5117 19.3301 26.3906 19.4785C26.2695 19.623 26.1328 19.752 25.9805 19.8652C25.832 19.9785 25.666 20.0684 25.4824 20.1348C25.2988 20.2051 25.0996 20.2402 24.8848 20.2402C24.5801 20.2324 24.291 20.1641 24.0176 20.0352C23.748 19.9062 23.5098 19.7227 23.3027 19.4844C23.0996 19.2422 22.9375 18.9473 22.8164 18.5996C22.6992 18.248 22.6406 17.8477 22.6406 17.3984C22.6406 16.8516 22.7051 16.373 22.834 15.9629C22.9629 15.5527 23.1387 15.2109 23.3613 14.9375C23.584 14.6641 23.8438 14.459 24.1406 14.3223C24.4414 14.1855 24.7617 14.1172 25.1016 14.1172C25.4453 14.1172 25.7637 14.1914 26.0566 14.3398C26.3535 14.4844 26.5957 14.6797 26.7832 14.9258L26.8066 13.543L25.377 13.0039L28.2715 12.4883L27.5156 19.2676ZM25.0664 19.4961C25.0781 19.4961 25.1172 19.4922 25.1836 19.4844C25.25 19.4766 25.332 19.457 25.4297 19.4258C25.5273 19.3906 25.6348 19.3398 25.752 19.2734C25.873 19.207 25.9922 19.1152 26.1094 18.998C26.2305 18.877 26.3457 18.7266 26.4551 18.5469C26.5645 18.3672 26.6582 18.1484 26.7363 17.8906L26.7715 15.9805C26.7129 15.8398 26.6387 15.7051 26.5488 15.5762C26.4629 15.4473 26.3652 15.334 26.2559 15.2363C26.1504 15.1348 26.0312 15.0547 25.8984 14.9961C25.7695 14.9336 25.6328 14.9023 25.4883 14.9023C25.2188 14.9023 24.9883 14.9688 24.7969 15.1016C24.6094 15.2344 24.4531 15.418 24.3281 15.6523C24.207 15.8867 24.1172 16.1641 24.0586 16.4844C24.0039 16.8047 23.9766 17.1523 23.9766 17.5273C23.9766 17.8047 24 18.0645 24.0469 18.3066C24.0938 18.5449 24.1621 18.752 24.252 18.9277C24.3418 19.1035 24.4551 19.2422 24.5918 19.3438C24.7285 19.4453 24.8867 19.4961 25.0664 19.4961ZM34.3945 16.3613C34.3945 16.5801 34.3848 16.8105 34.3652 17.0527C34.3457 17.2949 34.3164 17.5371 34.2773 17.7793C34.2383 18.0215 34.1895 18.2578 34.1309 18.4883C34.0762 18.7188 34.0117 18.9297 33.9375 19.1211L35.0918 19.4961L32.0391 20.0938L33.0762 19.3145C33.1582 19.0137 33.2129 18.7246 33.2402 18.4473C33.2715 18.1699 33.2871 17.9082 33.2871 17.6621C33.2871 17.5137 33.2812 17.3457 33.2695 17.1582C33.2617 16.9668 33.2402 16.7734 33.2051 16.5781C33.1738 16.3828 33.127 16.1914 33.0645 16.0039C33.0059 15.8164 32.9277 15.6504 32.8301 15.5059C32.7324 15.3574 32.6113 15.2402 32.4668 15.1543C32.3262 15.0645 32.1562 15.0195 31.957 15.0195C31.7266 15.0195 31.4922 15.0957 31.2539 15.248C31.0156 15.4004 30.7949 15.625 30.5918 15.9219V19.1621L31.5586 19.8535L28.6582 20.0586L29.4258 19.209L29.8359 14.9492L28.5879 14.334L30.5918 14.1348V15.0195C30.7051 14.8633 30.8301 14.7168 30.9668 14.5801C31.1035 14.4434 31.248 14.3262 31.4004 14.2285C31.5527 14.127 31.7109 14.0488 31.875 13.9941C32.043 13.9355 32.2148 13.9062 32.3906 13.9062C32.7305 13.9062 33.0254 13.9688 33.2754 14.0938C33.5254 14.2188 33.7324 14.3926 33.8965 14.6152C34.0645 14.834 34.1895 15.0938 34.2715 15.3945C34.3535 15.6914 34.3945 16.0137 34.3945 16.3613ZM36.7383 17.8496C36.7891 18.0684 36.8574 18.2832 36.9434 18.4941C37.0293 18.7012 37.1348 18.8867 37.2598 19.0508C37.3848 19.2148 37.5293 19.3477 37.6934 19.4492C37.8574 19.5508 38.043 19.6016 38.25 19.6016C38.5234 19.6016 38.7617 19.5449 38.9648 19.4316C39.168 19.3184 39.334 19.1758 39.4629 19.0039C39.5918 18.8281 39.6816 18.6367 39.7324 18.4297C39.7832 18.2188 39.793 18.0176 39.7617 17.8262C39.8711 17.8691 39.9609 17.9258 40.0312 17.9961C40.1055 18.0664 40.1621 18.1445 40.2012 18.2305C40.2441 18.3125 40.2734 18.3984 40.2891 18.4883C40.3047 18.5742 40.3125 18.6582 40.3125 18.7402C40.3125 18.9277 40.2578 19.1094 40.1484 19.2852C40.0391 19.457 39.8848 19.6113 39.6855 19.748C39.4902 19.8809 39.2578 19.9883 38.9883 20.0703C38.7188 20.1523 38.4238 20.1934 38.1035 20.1934C37.6738 20.1934 37.2891 20.1094 36.9492 19.9414C36.6133 19.7734 36.3281 19.5469 36.0938 19.2617C35.8594 18.9727 35.6797 18.6348 35.5547 18.248C35.4297 17.8613 35.3672 17.4492 35.3672 17.0117C35.3672 16.5664 35.4297 16.1562 35.5547 15.7812C35.6797 15.4023 35.8633 15.0801 36.1055 14.8145C36.3516 14.5488 36.6523 14.3477 37.0078 14.2109C37.3633 14.0742 37.7734 14.0195 38.2383 14.0469C38.5586 14.0703 38.8535 14.1621 39.123 14.3223C39.3926 14.4824 39.627 14.6895 39.8262 14.9434C40.0293 15.1934 40.1914 15.4805 40.3125 15.8047C40.4375 16.1289 40.5137 16.4668 40.541 16.8184L36.7383 17.8496ZM36.627 16.9062C36.627 16.9609 36.627 17.0156 36.627 17.0703C36.627 17.1211 36.6309 17.1738 36.6387 17.2285L39.2109 16.291C39.125 16.0098 39.0273 15.7695 38.918 15.5703C38.8125 15.3672 38.7012 15.2012 38.584 15.0723C38.4668 14.9434 38.3477 14.8496 38.2266 14.791C38.1094 14.7285 37.9961 14.6973 37.8867 14.6973C37.7227 14.6973 37.5781 14.7285 37.4531 14.791C37.3281 14.8535 37.2188 14.9395 37.125 15.0488C37.0352 15.1543 36.957 15.2793 36.8906 15.4238C36.8281 15.5684 36.7773 15.7227 36.7383 15.8867C36.6992 16.0508 36.6699 16.2207 36.6504 16.3965C36.6348 16.5684 36.627 16.7383 36.627 16.9062ZM45.5215 20.0469C44.9082 20.0469 44.2852 20 43.6523 19.9062L45.2461 19.1738L45.7852 13.1211L43.9746 12.3066C44.3535 12.2207 44.7383 12.1543 45.1289 12.1074C45.5195 12.0566 45.8789 12.0195 46.207 11.9961C46.5859 11.9688 46.9551 11.9531 47.3145 11.9492C47.5801 11.9492 47.8535 11.9805 48.1348 12.043C48.4199 12.1055 48.6973 12.2051 48.9668 12.3418C49.2363 12.4746 49.4902 12.6465 49.7285 12.8574C49.9668 13.0684 50.1738 13.3203 50.3496 13.6133C50.5293 13.9062 50.6719 14.2441 50.7773 14.627C50.8828 15.0059 50.9355 15.4336 50.9355 15.9102C50.9355 16.4375 50.8594 16.9062 50.707 17.3164C50.5547 17.7266 50.3457 18.084 50.0801 18.3887C49.8184 18.6934 49.5117 18.9531 49.1602 19.168C48.8086 19.3789 48.4316 19.5488 48.0293 19.6777C47.627 19.8066 47.2109 19.9004 46.7812 19.959C46.3555 20.0176 45.9355 20.0469 45.5215 20.0469ZM49.5703 15.6816C49.5703 15.4824 49.5547 15.2695 49.5234 15.043C49.4961 14.8164 49.4473 14.5918 49.377 14.3691C49.3066 14.1465 49.2129 13.9336 49.0957 13.7305C48.9785 13.5234 48.832 13.3418 48.6562 13.1855C48.4844 13.0293 48.2793 12.9043 48.041 12.8105C47.8027 12.7168 47.5273 12.6699 47.2148 12.6699C47.0508 12.6699 46.8789 12.6816 46.6992 12.7051V19.2676C47.2305 19.1934 47.6777 19.0547 48.041 18.8516C48.4082 18.6484 48.7051 18.3926 48.9316 18.084C49.1582 17.7715 49.3203 17.4141 49.418 17.0117C49.5195 16.6055 49.5703 16.1621 49.5703 15.6816ZM51.6094 17.0586C51.6094 16.6211 51.6777 16.2168 51.8145 15.8457C51.9551 15.4707 52.1484 15.1465 52.3945 14.873C52.6445 14.5996 52.9395 14.3867 53.2793 14.2344C53.623 14.0781 53.998 14 54.4043 14C54.7988 14 55.1602 14.0742 55.4883 14.2227C55.8164 14.3672 56.1016 14.5723 56.3438 14.8379C56.5859 15.1035 56.7793 15.4219 56.9238 15.793C57.0684 16.1641 57.1543 16.5742 57.1816 17.0234C57.209 17.5039 57.1582 17.9395 57.0293 18.3301C56.9043 18.7168 56.7188 19.0469 56.4727 19.3203C56.2266 19.5898 55.9316 19.7988 55.5879 19.9473C55.248 20.0957 54.8789 20.1699 54.4805 20.1699C54.0977 20.1699 53.7324 20.1016 53.3848 19.9648C53.041 19.8242 52.7363 19.6211 52.4707 19.3555C52.209 19.0898 52 18.7656 51.8438 18.3828C51.6875 17.9961 51.6094 17.5547 51.6094 17.0586ZM53.0508 17.1582C53.0508 17.502 53.0996 17.8125 53.1973 18.0898C53.2949 18.3672 53.4258 18.6035 53.5898 18.7988C53.7539 18.9902 53.9434 19.1387 54.1582 19.2441C54.373 19.3496 54.5996 19.4023 54.8379 19.4023C55.0762 19.4023 55.2988 19.3516 55.5059 19.25C55.7129 19.1445 55.8926 18.998 56.0449 18.8105C56.1973 18.6191 56.3164 18.3906 56.4023 18.125C56.4883 17.8594 56.5312 17.5645 56.5312 17.2402C56.5312 16.9199 56.4883 16.6191 56.4023 16.3379C56.3164 16.0527 56.1953 15.8047 56.0391 15.5938C55.8867 15.3828 55.7051 15.2168 55.4941 15.0957C55.2832 14.9746 55.0527 14.9141 54.8027 14.9141C54.5801 14.9141 54.3633 14.9648 54.1523 15.0664C53.9453 15.168 53.7598 15.3164 53.5957 15.5117C53.4316 15.7031 53.2988 15.9375 53.1973 16.2148C53.0996 16.4922 53.0508 16.8066 53.0508 17.1582ZM62.7422 19.2676L64.0371 19.748L61.916 20.1582L61.9395 19.0156C61.8457 19.1758 61.7383 19.3301 61.6172 19.4785C61.4961 19.623 61.3594 19.752 61.207 19.8652C61.0586 19.9785 60.8926 20.0684 60.709 20.1348C60.5254 20.2051 60.3262 20.2402 60.1113 20.2402C59.8066 20.2324 59.5176 20.1641 59.2441 20.0352C58.9746 19.9062 58.7363 19.7227 58.5293 19.4844C58.3262 19.2422 58.1641 18.9473 58.043 18.5996C57.9258 18.248 57.8672 17.8477 57.8672 17.3984C57.8672 16.8516 57.9316 16.373 58.0605 15.9629C58.1895 15.5527 58.3652 15.2109 58.5879 14.9375C58.8105 14.6641 59.0703 14.459 59.3672 14.3223C59.668 14.1855 59.9883 14.1172 60.3281 14.1172C60.6719 14.1172 60.9902 14.1914 61.2832 14.3398C61.5801 14.4844 61.8223 14.6797 62.0098 14.9258L62.0332 13.543L60.6035 13.0039L63.498 12.4883L62.7422 19.2676ZM60.293 19.4961C60.3047 19.4961 60.3438 19.4922 60.4102 19.4844C60.4766 19.4766 60.5586 19.457 60.6562 19.4258C60.7539 19.3906 60.8613 19.3398 60.9785 19.2734C61.0996 19.207 61.2188 19.1152 61.3359 18.998C61.457 18.877 61.5723 18.7266 61.6816 18.5469C61.791 18.3672 61.8848 18.1484 61.9629 17.8906L61.998 15.9805C61.9395 15.8398 61.8652 15.7051 61.7754 15.5762C61.6895 15.4473 61.5918 15.334 61.4824 15.2363C61.377 15.1348 61.2578 15.0547 61.125 14.9961C60.9961 14.9336 60.8594 14.9023 60.7148 14.9023C60.4453 14.9023 60.2148 14.9688 60.0234 15.1016C59.8359 15.2344 59.6797 15.418 59.5547 15.6523C59.4336 15.8867 59.3438 16.1641 59.2852 16.4844C59.2305 16.8047 59.2031 17.1523 59.2031 17.5273C59.2031 17.8047 59.2266 18.0645 59.2734 18.3066C59.3203 18.5449 59.3887 18.752 59.4785 18.9277C59.5684 19.1035 59.6816 19.2422 59.8184 19.3438C59.9551 19.4453 60.1133 19.4961 60.293 19.4961ZM69.3691 16.3496C69.3691 16.5566 69.3574 16.7793 69.334 17.0176C69.3105 17.2559 69.2754 17.498 69.2285 17.7441C69.1855 17.9902 69.1328 18.2324 69.0703 18.4707C69.0117 18.7051 68.9473 18.9219 68.877 19.1211L70.125 20L67.916 19.9062L68.0508 19.1855C67.8164 19.4785 67.5449 19.7031 67.2363 19.8594C66.9316 20.0117 66.5781 20.1035 66.1758 20.1348C65.8477 20.1582 65.5605 20.1348 65.3145 20.0645C65.0723 19.998 64.8691 19.8945 64.7051 19.7539C64.5449 19.6094 64.4258 19.4336 64.3477 19.2266C64.2695 19.0156 64.2305 18.7812 64.2305 18.5234C64.2305 18.2852 64.2891 18.0547 64.4062 17.832C64.5234 17.6055 64.6914 17.4062 64.9102 17.2344C65.1328 17.0625 65.4043 16.9258 65.7246 16.8242C66.0449 16.7188 66.4082 16.666 66.8145 16.666C67.002 16.666 67.2168 16.6836 67.459 16.7188C67.7051 16.7539 67.9375 16.8281 68.1562 16.9414C68.1367 16.7031 68.0996 16.4609 68.0449 16.2148C67.9941 15.9648 67.918 15.7383 67.8164 15.5352C67.7148 15.332 67.582 15.168 67.418 15.043C67.2578 14.9141 67.0566 14.8496 66.8145 14.8496C66.6074 14.8496 66.4062 14.8926 66.2109 14.9785C66.0156 15.0645 65.832 15.1875 65.6602 15.3477C65.4922 15.5078 65.3398 15.7031 65.2031 15.9336C65.0664 16.1641 64.9512 16.4238 64.8574 16.7129L64.3652 13.8418L65.1094 14.9844C65.293 14.7578 65.4785 14.5781 65.666 14.4453C65.8535 14.3086 66.0391 14.2051 66.2227 14.1348C66.4102 14.0605 66.5898 14.0117 66.7617 13.9883C66.9375 13.9648 67.1055 13.9531 67.2656 13.9531C67.5664 13.9688 67.8438 14.0312 68.0977 14.1406C68.3555 14.2461 68.5781 14.4004 68.7656 14.6035C68.9531 14.8027 69.0996 15.0488 69.2051 15.3418C69.3145 15.6348 69.3691 15.9707 69.3691 16.3496ZM68.1562 18.2246C68.1641 18.1152 68.1699 18.0098 68.1738 17.9082C68.1777 17.8066 68.1797 17.707 68.1797 17.6094V17.5391C68.0391 17.4844 67.8965 17.4434 67.752 17.416C67.6113 17.3848 67.4805 17.3633 67.3594 17.3516C67.2383 17.3359 67.1348 17.3281 67.0488 17.3281C66.9668 17.3242 66.9121 17.3223 66.8848 17.3223C66.6621 17.3301 66.4688 17.3711 66.3047 17.4453C66.1406 17.5195 66.0039 17.6133 65.8945 17.7266C65.7891 17.8359 65.709 17.959 65.6543 18.0957C65.6035 18.2324 65.5781 18.3672 65.5781 18.5C65.5781 18.8008 65.6504 19.0293 65.7949 19.1855C65.9434 19.3379 66.1582 19.4141 66.4395 19.4141C66.627 19.4141 66.8047 19.3809 66.9727 19.3145C67.1406 19.248 67.2969 19.1602 67.4414 19.0508C67.5898 18.9375 67.7227 18.8105 67.8398 18.6699C67.9609 18.5254 68.0664 18.377 68.1562 18.2246ZM70.7812 17.4336C70.7812 17.0664 70.8184 16.7012 70.8926 16.3379C70.9707 15.9707 71.0547 15.6348 71.1445 15.3301L70.1309 15.3945L72.9902 12.2715C72.7637 12.9863 72.5801 13.6309 72.4395 14.2051L74.7188 14.3984L74.4199 15.1016L72.2109 15.2598C72.1562 15.5449 72.1133 15.7988 72.082 16.0215C72.0547 16.2402 72.0312 16.4258 72.0117 16.5781C71.9922 16.7578 71.9785 16.9141 71.9707 17.0469C71.9707 17.4375 71.9941 17.7891 72.041 18.1016C72.0879 18.4141 72.1602 18.6816 72.2578 18.9043C72.3594 19.123 72.4863 19.293 72.6387 19.4141C72.7949 19.5312 72.9805 19.5898 73.1953 19.5898C73.3945 19.5898 73.5605 19.5508 73.6934 19.4727C73.8301 19.3906 73.9395 19.2871 74.0215 19.1621C74.1035 19.0332 74.1621 18.8906 74.1973 18.7344C74.2324 18.5742 74.25 18.416 74.25 18.2598C74.25 18.1152 74.2383 17.9746 74.2148 17.8379C74.3828 17.9238 74.5098 18.0625 74.5957 18.2539C74.6855 18.4414 74.7305 18.6465 74.7305 18.8691C74.7305 19.0996 74.6914 19.3027 74.6133 19.4785C74.5391 19.6543 74.4355 19.8027 74.3027 19.9238C74.1699 20.041 74.0137 20.1309 73.834 20.1934C73.6543 20.2559 73.4609 20.2871 73.2539 20.2871C73.1289 20.2871 72.9805 20.2734 72.8086 20.2461C72.6406 20.2188 72.4648 20.168 72.2812 20.0938C72.0977 20.0234 71.916 19.9219 71.7363 19.7891C71.5566 19.6562 71.3965 19.4844 71.2559 19.2734C71.1152 19.0625 71 18.8066 70.9102 18.5059C70.8242 18.2012 70.7812 17.8438 70.7812 17.4336ZM80.7598 14.791L79.5469 15.2129L77.0508 17.5859C77.207 17.7773 77.3574 17.9414 77.502 18.0781C77.6465 18.2148 77.7832 18.332 77.9121 18.4297C78.041 18.5273 78.1602 18.6055 78.2695 18.6641C78.3828 18.7227 78.4863 18.7676 78.5801 18.7988C78.7949 18.873 78.9902 18.8965 79.166 18.8691C79.291 18.8613 79.4258 18.8223 79.5703 18.752C79.6953 18.6934 79.8379 18.5996 79.998 18.4707C80.1621 18.3418 80.3359 18.1562 80.5195 17.9141C80.4492 18.3477 80.3457 18.709 80.209 18.998C80.0762 19.2832 79.9355 19.5117 79.7871 19.6836C79.6387 19.8516 79.4961 19.9707 79.3594 20.041C79.2266 20.1113 79.125 20.1465 79.0547 20.1465C78.8516 20.1152 78.627 20.0234 78.3809 19.8711C78.2754 19.8086 78.1582 19.7285 78.0293 19.6309C77.9043 19.5332 77.7695 19.416 77.625 19.2793C77.4844 19.1426 77.334 18.9824 77.1738 18.7988C77.0137 18.6113 76.8496 18.3965 76.6816 18.1543L76.6934 19.2793L77.4727 19.9297H74.543L75.4453 19.1973L75.8613 12.6699L74.5547 12.0195L76.6289 11.6738L76.6699 16.9766L78.3105 14.8789L77.6367 14.1348L80.7598 14.791ZM80.6953 20.0586L81.6152 19.3379L81.416 15.2949L80.332 14.5859L82.8516 14.1582L82.4004 18.8574L83.6602 19.6426L80.6953 20.0586ZM82.916 12.7402C82.916 12.8574 82.8926 12.9688 82.8457 13.0742C82.7988 13.1758 82.7344 13.2676 82.6523 13.3496C82.5703 13.4277 82.4766 13.4902 82.3711 13.5371C82.2656 13.5801 82.1543 13.6016 82.0371 13.6016C81.9121 13.6016 81.7949 13.5801 81.6855 13.5371C81.5801 13.4902 81.4883 13.4277 81.4102 13.3496C81.332 13.2676 81.2695 13.1758 81.2227 13.0742C81.1758 12.9688 81.1523 12.8574 81.1523 12.7402C81.1523 12.6191 81.1758 12.5078 81.2227 12.4062C81.2695 12.3008 81.332 12.209 81.4102 12.1309C81.4883 12.0527 81.5801 11.9922 81.6855 11.9492C81.7949 11.9023 81.9121 11.8789 82.0371 11.8789C82.1543 11.8789 82.2656 11.9023 82.3711 11.9492C82.4766 11.9922 82.5703 12.0527 82.6523 12.1309C82.7344 12.209 82.7988 12.3008 82.8457 12.4062C82.8926 12.5078 82.916 12.6191 82.916 12.7402Z" fill="black"/>
</svg>
